<?xml version="1.0" standalone="no"?>
<!DOCTYPE svg PUBLIC "-//W3C//DTD SVG 20010904//EN"
 "http://www.w3.org/TR/2001/REC-SVG-20010904/DTD/svg10.dtd">
<svg version="1.0" xmlns="http://www.w3.org/2000/svg"
 width="512.000000pt" height="512.000000pt" viewBox="0 0 512.000000 512.000000"
 preserveAspectRatio="xMidYMid meet">
<metadata>
Created by potrace 1.11, written by Peter Selinger 2001-2013
</metadata>
<g transform="translate(0.000000,512.000000) scale(0.100000,-0.100000)"
fill="#000000" stroke="none">
<path d="M2247 5066 c-302 -190 -570 -478 -667 -717 l-23 -57 -104 78 c-229
169 -474 278 -693 306 -68 9 -259 10 -320 2 -158 -21 -290 -76 -384 -159 l-56
-51 0 -516 0 -517 27 -40 c170 -255 612 -557 1163 -795 91 -39 174 -75 185
-80 11 -5 61 -25 111 -43 75 -28 94 -32 108 -22 15 11 11 16 -31 40 -115 67
-504 340 -533 374 -3 3 -39 35 -80 71 -208 179 -375 361 -430 469 -101 201
-78 414 60 552 108 108 311 151 495 104 120 -31 336 -160 519 -310 l86 -70 31
-100 c17 -55 35 -105 40 -111 17 -21 42 -171 43 -264 1 -96 -4 -149 -23 -230
-5 -25 -12 -58 -15 -75 -9 -50 -15 -76 -20 -93 -3 -9 -8 -39 -12 -67 -3 -27
-8 -53 -10 -56 -8 -13 -19 -178 -19 -279 0 -140 14 -267 41 -375 8 -33 17 -70
19 -82 7 -32 78 -226 114 -310 16 -40 26 -73 20 -73 -5 0 -9 6 -9 13 -2 44
-80 155 -137 194 -40 27 -69 75 -57 94 6 10 -49 69 -64 69 -15 0 -21 -47 -19
-145 2 -68 9 -110 31 -175 16 -47 34 -91 40 -99 6 -7 -5 -4 -24 8 -19 11 -45
21 -57 21 -13 0 -29 12 -42 33 -11 18 -30 42 -41 52 -18 17 -23 17 -31 5 -27
-40 17 -235 62 -276 12 -10 39 -50 61 -89 23 -38 68 -117 102 -175 34 -58 62
-112 63 -120 1 -8 4 -24 6 -35 2 -11 8 -42 12 -70 5 -27 9 -52 10 -55 5 -24
15 -84 21 -125 8 -67 23 -96 61 -120 22 -13 32 -28 33 -45 2 -80 127 -219 234
-260 16 -6 26 -17 26 -30 0 -73 122 -240 175 -240 l27 0 -33 28 c-92 76 -137
156 -146 259 -13 137 -7 371 12 468 12 63 50 155 65 157 8 0 20 2 25 3 6 2 15
3 22 4 30 3 70 53 88 110 12 36 23 55 27 48 16 -25 7 -117 -18 -193 -14 -44
-36 -125 -49 -182 -28 -120 -26 -194 7 -259 29 -57 105 -130 121 -114 8 8 -1
22 -32 53 -82 81 -102 156 -75 283 8 38 16 70 17 72 2 1 32 -32 67 -75 89
-108 253 -272 310 -311 26 -18 60 -48 75 -67 28 -34 52 -46 42 -20 -4 11 3 9
28 -5 102 -61 242 -85 380 -68 239 31 439 164 705 469 40 47 109 124 153 171
173 189 258 343 282 509 12 81 16 104 20 108 2 2 16 -3 32 -11 63 -32 176 -63
264 -72 20 -2 65 -10 100 -19 57 -13 116 -21 227 -31 32 -3 33 -2 30 28 -2 24
-8 32 -23 33 -31 1 -120 14 -241 35 -334 57 -615 215 -1063 599 -87 74 -258
225 -282 249 -9 9 -58 54 -109 101 -51 47 -109 101 -130 120 -21 19 -93 87
-161 150 -325 304 -637 631 -839 880 -25 30 -47 57 -50 60 -3 3 -21 25 -40 50
-61 79 -189 232 -202 241 -24 16 -25 287 -2 389 3 14 8 36 11 50 19 105 98
296 166 401 93 145 232 289 363 376 30 20 54 37 54 39 0 2 -53 4 -118 4 l-119
0 -86 -54z m-392 -1541 c39 -33 95 -80 125 -105 50 -41 119 -103 209 -188 l34
-32 -34 7 c-70 16 -191 8 -246 -17 -67 -29 -73 -55 -10 -44 71 12 245 7 337
-11 13 -3 109 -92 224 -209 224 -228 479 -446 696 -595 19 -13 69 -47 110 -76
41 -28 126 -84 188 -123 113 -72 257 -178 299 -219 116 -114 490 -377 616
-434 27 -12 28 -15 23 -63 -10 -81 -15 -107 -37 -175 -44 -140 -121 -256 -288
-436 -25 -27 -68 -77 -96 -110 -75 -90 -242 -255 -313 -309 -81 -62 -212 -131
-287 -152 -81 -22 -227 -26 -305 -7 -81 18 -168 58 -260 119 -75 49 -244 209
-316 298 -21 28 -54 66 -71 85 -40 43 -40 57 -8 149 29 82 33 171 11 229 -8
21 -17 58 -19 82 -6 48 -18 61 -49 53 -28 -7 -63 -63 -100 -163 -28 -78 -48
-110 -48 -80 0 5 -6 16 -13 23 -12 13 -58 81 -111 167 -15 24 -29 56 -31 72
-8 58 -26 107 -63 169 -27 45 -41 82 -45 120 -7 58 -30 99 -64 114 -14 7 -33
42 -59 110 -21 56 -39 103 -39 106 -1 3 -11 35 -23 72 -46 144 -66 287 -66
468 0 165 15 283 65 500 46 196 46 340 0 526 -44 178 -43 168 -23 152 9 -7 49
-40 87 -73z m-72 -1824 c75 -83 95 -157 102 -372 2 -90 7 -231 10 -314 10
-260 12 -425 5 -425 -3 0 -16 10 -28 23 -20 21 -24 34 -38 122 -3 22 -24 141
-46 265 -22 124 -42 241 -45 260 -3 19 -13 76 -22 127 -11 58 -16 115 -12 155
3 35 5 98 5 140 0 88 5 90 69 19z m-133 -216 c31 -32 45 -79 66 -215 5 -33 8
-53 19 -110 12 -60 13 -70 10 -70 -3 0 -29 42 -73 120 -10 19 -30 53 -43 75
-16 27 -24 57 -25 95 -2 53 -6 82 -20 127 -5 18 -3 21 14 16 11 -2 34 -20 52
-38z m373 -109 c35 -75 37 -89 42 -286 3 -154 8 -214 20 -278 2 -9 4 -22 4
-28 2 -22 40 -52 60 -47 19 5 20 2 14 -43 -4 -27 -7 -129 -7 -227 0 -127 -3
-177 -11 -177 -19 0 -86 53 -137 107 -60 65 -70 102 -73 288 -4 169 -15 513
-19 563 -1 23 4 38 21 54 20 19 40 61 48 106 5 22 4 22 9 22 3 0 16 -24 29
-54z m151 -323 l68 -102 -27 -68 c-42 -108 -44 -113 -60 -120 -21 -8 -42 23
-50 72 -4 22 -8 51 -11 65 -3 23 -7 240 -5 265 1 13 9 3 85 -112z"/>
<path d="M1981 2750 c-10 -5 -7 -13 10 -29 12 -11 25 -21 29 -21 3 0 14 -14
24 -31 22 -37 17 -103 -11 -150 -16 -27 -66 -53 -116 -61 -30 -5 -24 -23 8
-26 99 -8 152 -25 215 -67 101 -69 183 -84 315 -59 46 8 118 52 146 87 51 66
86 96 127 106 30 9 42 17 42 30 0 54 -274 96 -399 61 -48 -13 -97 -13 -124 1
-12 7 -45 33 -73 59 -68 64 -168 116 -193 100z"/>
<path d="M2960 1606 c0 -6 68 -76 75 -76 12 0 -26 60 -44 70 -20 10 -31 13
-31 6z"/>
<path d="M3268 1553 c-28 -18 -45 -43 -28 -43 13 0 79 44 80 53 0 12 -23 7
-52 -10z"/>
<path d="M3220 1283 c-8 -3 -32 -23 -53 -44 -32 -33 -40 -38 -57 -29 -11 6
-20 17 -20 24 0 16 -56 45 -79 41 -9 -2 -24 -4 -33 -4 -10 -1 -46 -28 -81 -61
-35 -33 -84 -71 -108 -85 -35 -20 -39 -25 -21 -25 23 0 80 34 95 57 4 6 34 32
67 56 55 42 62 44 93 35 19 -6 40 -22 50 -40 12 -20 22 -28 33 -24 9 3 21 6
28 6 7 0 29 16 50 35 62 56 92 48 194 -55 56 -57 132 -98 132 -72 0 5 -12 15
-27 23 -14 8 -51 40 -82 72 -31 32 -68 65 -82 72 -32 17 -78 25 -99 18z"/>
<path d="M3430 1076 c-16 -20 -62 -33 -143 -41 -38 -4 -67 -8 -65 -9 2 -2 21
-6 43 -9 27 -4 35 -3 25 3 -11 7 -1 10 35 10 28 0 63 7 79 15 16 9 31 14 33
12 7 -7 -22 -25 -57 -35 -27 -8 -30 -10 -11 -11 25 -1 101 37 101 51 0 4 -8 4
-17 1 -16 -6 -16 -5 -4 10 7 9 9 17 3 17 -5 0 -15 -7 -22 -14z"/>
<path d="M2771 1033 c55 -100 137 -182 219 -221 46 -22 69 -26 145 -26 78 -1
97 3 145 27 85 42 172 132 185 192 l7 30 -19 -26 c-106 -150 -235 -230 -346
-215 -93 13 -217 97 -286 194 l-21 29 43 -4 c23 -2 67 2 97 10 36 9 63 11 78
6 13 -5 34 -9 46 -9 13 0 29 -7 36 -15 16 -19 30 -19 30 0 0 8 -3 14 -7 13 -5
-2 -25 7 -45 20 -52 32 -96 37 -163 17 -75 -21 -110 -22 -130 -1 -28 28 -35
17 -14 -21z"/>
<path d="M3184 1046 c-18 -8 -35 -19 -38 -25 -11 -17 10 -13 24 4 7 8 18 15
26 15 7 0 16 5 19 10 8 12 7 12 -31 -4z"/>
<path d="M3238 1043 c6 -2 18 -2 25 0 6 3 1 5 -13 5 -14 0 -19 -2 -12 -5z"/>
<path d="M3318 1003 c7 -3 16 -2 19 1 4 3 -2 6 -13 5 -11 0 -14 -3 -6 -6z"/>
<path d="M2900 245 c0 -3 15 -26 33 -52 39 -56 65 -109 73 -152 4 -17 11 -34
16 -37 14 -9 1 50 -23 106 -31 72 -99 165 -99 135z"/>
<path d="M3260 169 c0 -33 45 -169 56 -169 13 0 12 7 -22 128 -8 28 -19 52
-24 52 -6 0 -10 -5 -10 -11z"/>
</g>
</svg>
