<?xml version="1.0" encoding="UTF-8"?>
<svg width="209px" height="120px" viewBox="0 0 209 120" version="1.1" xmlns="http://www.w3.org/2000/svg" xmlns:xlink="http://www.w3.org/1999/xlink">
    <!-- Generator: Sketch 50.2 (55047) - http://www.bohemiancoding.com/sketch -->
    <title>logowyb</title>
    <desc>Created with Sketch.</desc>
    <defs></defs>
    <g id="Homepage" stroke="none" stroke-width="1" fill="none" fill-rule="evenodd">
        <g id="Desktop-HD" transform="translate(-135.000000, -10.000000)" fill="#201F1F">
            <g id="logowyb" transform="translate(134.000000, 10.000000)">
                <path d="M33.1583675,54.0995368 C29.766741,52.8768 11.454994,46.1226947 4.77041566,36.9420632 C3.28903012,34.9096421 2.60716265,33.0704842 2.3415,32.2810105 C0.882885542,27.9281684 0.55396988,20.9517474 4.58318675,16.8022737 C8.49348795,12.7753263 14.6935482,13.2805895 16.7227048,13.4448 C28.7774639,14.4275368 37.8327651,25.5168 43.8038494,32.8393263 C44.7766807,34.0330105 46.0468012,35.6763789 48.2859578,38.2481684 C52.7756566,43.4043789 56.5746325,47.0283789 58.7454759,49.0645895 C75.0343916,64.3412211 83.1788494,71.9808 92.9236084,73.8666947 C96.8389699,74.6245895 101.709452,74.9138526 101.701861,74.9858526 C101.693006,75.0641684 97.4335482,75.3458526 92.5504157,74.0536421 C84.8575843,74.0536421 72.7054157,62.7610105 72.7965,62.6599579 C72.8331867,62.6182737 74.8711988,64.3993263 74.853488,64.4208 C74.8433675,64.4359579 73.8945723,63.7285895 70.3245723,60.9989053 C70.2929458,60.9812211 60.5937289,55.3386947 52.0216807,47.2001684 C48.6161386,43.9652211 48.8071627,43.5837474 43.9910783,38.9946947 C41.8139096,36.9193263 39.4128253,35.0245895 34.8396325,30.9749053 C33.1318012,29.4629053 31.2405361,27.7791158 28.3030663,26.1256421 C25.9829458,24.8208 24.4142711,23.9391158 22.1396928,23.7029053 C21.3616807,23.6220632 16.2318614,23.0940632 13.3614398,26.6864842 C11.5448133,28.9601684 11.6409578,31.6734316 11.6801747,32.4679579 C11.8598133,36.0515368 14.0521627,38.6599579 16.1622831,40.8591158 C19.1237892,43.9450105 24.4813193,48.8953263 33.1583675,54.0995368" id="Fill-1"></path>
                <path d="M20.7239639,23.2909895 C21.2983012,23.2909895 21.7942048,23.3263579 22.1737229,23.3655158 C24.5191446,23.6093053 26.0903494,24.4935158 28.4686627,25.8312 C31.4099277,27.4859368 33.3252289,29.1823579 35.0153494,30.6792 L35.0646867,30.7221474 C37.0736024,32.5006737 38.6954096,33.8914105 39.9984217,35.0093053 C41.6758916,36.4455158 42.9991446,37.5810947 44.224988,38.7495158 C46.8360723,41.2366737 47.9961325,42.5099368 49.0195663,43.6328842 C49.8823373,44.5802526 50.6983012,45.4758316 52.2555904,46.9537263 C60.6631807,54.9368842 70.0967349,60.4745684 70.4952289,60.7069895 L70.5319157,60.7309895 C71.3845663,61.3840421 72.0803494,61.9158316 72.6483614,62.3465684 C72.6635422,62.3389895 72.6787229,62.3326737 72.6951687,62.3263579 C68.648241,58.8173053 64.049747,54.5023579 58.5138434,49.3107789 C55.8622771,46.8236211 52.2745663,43.3436211 48.0302892,38.4703579 C46.2857711,36.4657263 45.1042048,34.9954105 44.2414337,33.9217263 C43.9884217,33.6072 43.7581807,33.3192 43.5418554,33.0539368 C37.5998675,25.7667789 28.623,14.7545684 16.694747,13.7832 C14.699747,13.6202526 8.62619277,13.1263579 4.82721687,17.0383579 C3.07004819,18.8459368 2.00360241,21.4253053 1.74173494,24.4947789 C1.52920482,26.9933053 1.86444578,29.7912 2.66396386,32.1735158 C3.19275904,33.7512 4.01504819,35.3314105 5.04354217,36.7436211 C10.3239036,43.9941474 23.1022771,49.8059368 30.0386024,52.5545684 C24.5634217,49.0101474 19.823241,45.1638316 15.918,41.0926737 C13.8015542,38.8872 11.528241,36.2206737 11.341012,32.4842526 C11.193,29.5183579 12.2139036,27.5794105 13.0956506,26.4754105 C15.2348675,23.7975158 18.5354096,23.2909895 20.7239639,23.2909895 M100.214024,75.4114105 C98.4467349,75.4114105 95.5206506,75.1853053 92.506012,74.3920421 C86.226253,74.3566737 76.9090843,66.9053053 73.6553494,63.9621474 C72.9076988,63.3975158 71.7248675,62.4968842 70.1359518,61.2817263 C69.6451084,60.9937263 60.1217349,55.3575158 51.7887831,47.4450947 C50.2137831,45.9495158 49.3902289,45.0463579 48.5173373,44.0888842 C47.501494,42.9747789 46.3502892,41.7103579 43.7569157,39.2383579 C42.5437229,38.0825684 41.2255301,36.9533053 39.5569157,35.5234105 C38.2513735,34.4029895 36.6283012,33.0109895 34.6143253,31.2286737 L34.564988,31.1857263 C32.9001687,29.7116211 31.0139639,28.0404632 28.1359518,26.4223579 C25.8322771,25.1250947 24.3091446,24.2686737 22.1041446,24.0387789 C20.3849277,23.8606737 16.1166145,23.7798316 13.6257108,26.8973053 C12.8173373,27.9103579 11.8811928,29.6952 12.0190843,32.4501474 C12.1936627,35.9541474 14.3758916,38.5069895 16.4075783,40.6253053 C20.9554699,45.3659368 26.649506,49.8008842 33.3328193,53.8101474 L33.0431205,54.4177263 C27.9639036,52.5861474 10.8931807,45.9280421 4.49577108,37.1415158 C3.42679518,35.6737263 2.5703494,34.0303579 2.02004819,32.3882526 C0.353963855,27.4177263 0.424807229,20.5979368 4.34016867,16.5672 C8.36179518,12.4240421 14.6757108,12.9394105 16.7504096,13.1074105 C28.9658313,14.1027789 38.0540241,25.2501474 44.0668554,32.6269895 C44.2844458,32.8935158 44.5159518,33.1815158 44.7702289,33.4985684 C45.6772771,34.6265684 46.8057108,36.0312 48.5426386,38.0257263 C52.7666747,42.8775158 56.3379398,46.3423579 58.9781205,48.8168842 C75.1974578,64.0303579 83.3393855,71.6661474 92.9892651,73.5343579 C95.7066145,74.0610947 98.8692651,74.3579368 100.568241,74.5170947 C101.856072,74.6383579 101.856072,74.6383579 101.963602,74.7697263 L102.053422,74.8796211 L102.02306,75.1777263 L101.891494,75.2686737 C101.777639,75.3457263 101.162819,75.4114105 100.214024,75.4114105" id="Fill-3"></path>
                <path d="M45.4927048,82.5995368 L45.4927048,82.6008 L45.4927048,82.5995368 Z M56.3013795,119.207116 L55.8510181,119.180589 C56.0521627,115.903958 56.0888494,112.638695 55.9598133,109.474484 C55.8636687,107.131326 55.7295723,106.187747 55.1185482,105.212589 C54.464512,104.171747 53.7434277,103.821853 52.5479458,103.242063 C51.7256566,102.841642 50.7022229,102.346484 49.3815,101.454695 C47.0879458,99.9073263 45.4319819,98.7881684 44.4844518,96.6597474 C43.7608373,95.0328 43.7772831,93.4993263 43.8076446,90.4437474 C43.836741,87.6395368 44.0302952,86.4029053 44.1428855,85.9140632 C44.4098133,84.7544842 45.1258373,82.4858526 45.4977651,82.2572211 C45.5622831,82.2180632 45.6343916,82.2054316 45.7027048,82.2218526 C45.7836687,82.2433263 45.8266807,82.2951158 45.8418614,82.3140632 C45.9392711,82.3469053 46.3630663,82.1688 46.5022229,82.1106947 C46.5869819,82.0765895 46.6565602,82.0475368 46.7033675,82.0336421 C47.448488,81.7999579 47.7495723,80.5557474 47.9696928,79.6462737 C48.1543916,78.8833263 48.2657169,78.4210105 48.6287892,78.4146947 L48.6338494,78.4146947 C49.2790301,78.4146947 49.4915602,80.1641684 49.5130663,80.3650105 C49.6661386,81.7431158 49.3435482,82.6589053 48.9349337,83.8159579 C48.7375843,84.3768 48.5136687,85.0121684 48.3036687,85.8041684 C47.7900542,87.7342737 47.3852349,89.2601684 47.9684277,90.8037474 C48.3365602,91.7801684 49.0437289,92.6252211 50.0722229,93.3199579 L49.8192108,93.6938526 C48.7122831,92.9460632 47.9469217,92.0277474 47.5446325,90.9629053 C46.9108373,89.2841684 47.3536084,87.6180632 47.8659578,85.6879579 C48.0810181,84.8795368 48.3087289,84.2353263 48.5086084,83.6669053 C48.9134277,82.5199579 49.2056566,81.6900632 49.0639699,80.4155368 C48.9779458,79.6361684 48.7768012,79.0980632 48.6502952,78.9174316 C48.5718614,79.0816421 48.479512,79.4618526 48.4086687,79.7511158 C48.163247,80.7666947 47.828006,82.1549053 46.8374639,82.4643789 C46.8007771,82.4744842 46.7438494,82.4997474 46.6755361,82.5275368 C46.3655964,82.6576421 45.9620422,82.8256421 45.6811988,82.7309053 C45.4370422,83.1578526 44.8905361,84.6774316 44.5831265,86.0151158 C44.4743313,86.4850105 44.2883675,87.6862737 44.2605361,90.4488 C44.2289096,93.4386947 44.2137289,94.9393263 44.8981265,96.4753263 C45.7925241,98.4875368 47.4042108,99.5751158 49.634512,101.0808 C50.9274036,101.953642 51.9356566,102.442484 52.7452952,102.836589 C53.9698735,103.430274 54.779512,103.823116 55.5018614,104.973853 C56.1672831,106.034905 56.3115,107.023958 56.4114398,109.4568 C56.5404759,112.636168 56.5037892,115.916589 56.3013795,119.207116 Z" id="Fill-5"></path>
                <path d="M45.4575361,82.4676632 C45.8054277,82.8339789 46.713741,82.6457684 47.2842831,82.2478737 C47.6385,82.0015579 47.891512,81.6529263 48.1925964,80.8722947 C48.7555482,79.4045053 49.2476566,77.0234526 48.5227771,76.6735579 C48.3785602,76.6028211 48.2318133,76.6381895 48.0850663,76.6735579 C47.5474157,76.8061895 47.0034398,77.2849263 45.9407892,80.1333474 C45.2500663,81.9889263 45.2918133,82.2920842 45.4575361,82.4676632" id="Fill-7"></path>
                <path d="M43.9373133,94.8277895 C42.8063494,94.4008421 41.8132771,93.7566316 40.9833976,92.9128421 L40.9403855,92.8711579 C40.4761084,92.4 39.8385181,91.7532632 39.4564699,90.7414737 C39.1111084,89.8244211 39.1250241,89.0324211 39.1313494,88.7355789 C39.1629759,87.0530526 39.0061084,82.3844211 38.7429759,75.3928421 L39.1946024,75.3764211 C39.4577349,82.3755789 39.6146024,87.0505263 39.584241,88.728 C39.5779157,89.0172632 39.564,89.7473684 39.879,90.5823158 C40.2281566,91.5056842 40.8012289,92.0867368 41.2629759,92.5541053 L41.3047229,92.5970526 C42.0890602,93.3928421 43.029,94.0016842 44.0967108,94.4058947 L43.9373133,94.8277895 Z" id="Fill-9"></path>
                <path d="M43.5179458,86.0325474 C43.4243313,86.0325474 43.334512,86.0186526 43.249753,85.9908632 C42.5868614,85.7773895 42.2250542,84.8237053 42.0833675,80.1992842 C42.0593313,79.4439158 42.0504759,78.8237053 42.0416205,78.2969684 C42.0163193,76.6321263 42.0049337,75.9424421 41.6304759,74.9192842 C41.2825843,73.9706526 40.7487289,73.0813895 40.0415602,72.2754947 L40.3818614,71.9786526 C41.1257169,72.8262316 41.6886687,73.7634947 42.0555361,74.7639158 C42.4565602,75.8590737 42.4679458,76.6207579 42.493247,78.2906526 C42.5021024,78.8148632 42.5122229,79.4325474 42.534994,80.1853895 C42.6463193,83.7954947 42.9005964,85.4047579 43.3876446,85.5613895 C43.586259,85.6258105 43.8645723,85.5310737 44.193488,85.2847579 L44.4642108,85.6460211 C44.1188494,85.9024421 43.8025843,86.0325474 43.5179458,86.0325474" id="Fill-11"></path>
                <path d="M40.5108976,73.2036632 C40.518488,73.0217684 40.5235482,72.8196632 40.5222831,72.5935579 C40.5222831,72.5935579 40.5286084,69.9510316 39.8239699,69.2588211 C39.5874036,69.0264 39.3078253,68.8710316 39.3078253,68.8710316 C39.1737289,68.7965053 39.0548133,68.7472421 38.9687892,68.7156632 L38.6588494,73.0584 C38.4640301,75.2651368 38.6968012,75.8424 38.9687892,75.9270316 C39.3331265,76.0419789 39.9239096,75.3245053 40.2123434,74.7636632 C40.2996325,74.5931368 40.4413193,74.2748211 40.498247,73.4398737 C40.4919217,73.4247158 40.4881265,73.4171368 40.4881265,73.4171368 C40.4881265,73.4171368 40.4919217,73.4247158 40.498247,73.4398737 C40.499512,73.4095579 40.5007771,73.3615579 40.5033072,73.3021895 C40.5071024,73.2516632 40.5108976,73.2150316 40.5108976,73.2036632" id="Fill-13"></path>
                <path d="M39.228,89.3310316 C38.7687831,89.2224 38.3917952,89.0190316 38.1071566,88.7247158 C37.6175783,88.2181895 37.5328193,87.5790316 37.5037229,87.3680842 C37.3721566,86.3853474 36.4056506,80.9891368 35.0672169,73.5200842 L34.6307711,71.0821895 L35.0760723,71.0026105 L35.5125181,73.4417684 C36.8522169,80.9158737 37.8187229,86.3158737 37.9502892,87.2973474 C37.9755904,87.4830316 38.0451687,88.0110316 38.4335422,88.4101895 C38.6561928,88.6413474 38.9585422,88.8030316 39.3317349,88.8901895 L39.228,89.3310316 Z" id="Fill-15"></path>
                <path d="M38.9531024,73.5181895 C38.7253916,73.5181895 38.6874398,73.2769263 38.6102711,72.7767158 C38.4723795,71.8962947 38.1852108,70.0609263 37.0782831,68.5388211 C36.5381024,67.7960842 35.8296687,67.1645053 34.9719578,66.6605053 L35.2009337,66.2727158 C36.1130422,66.8082947 36.8670181,67.4802947 37.4438855,68.2735579 C38.4053313,69.5960842 38.7785241,71.1194526 38.9606928,72.1287158 L39.2731627,72.1236632 C39.2959337,73.2668211 39.2503916,73.4878737 38.9935843,73.5156632 C38.9796687,73.5169263 38.965753,73.5181895 38.9531024,73.5181895" id="Fill-17"></path>
                <path d="M33.6877952,63.8298947 C33.4347831,64.8366316 33.3778554,65.6968421 33.3778554,66.312 C33.3765904,68.5111579 34.1002048,69.4155789 34.4645422,70.8871579 C34.4949036,71.0109474 34.5733373,71.3406316 34.8529157,71.5856842 C34.9553855,71.6741053 35.0135783,71.7524211 35.0856867,71.7410526 C35.3475542,71.6917895 35.3918313,70.6067368 35.3918313,70.6067368 C35.4841807,69.8084211 35.6663494,67.8871579 35.3197229,66.6214737 C35.2653253,66.4244211 35.215988,66.3107368 35.0856867,65.8471579 C34.7808072,64.7570526 34.7833373,64.4362105 34.4645422,64.1406316 C34.1621928,63.8589474 33.7371325,63.7541053 33.6877952,63.8298947 C33.6435181,63.8981053 33.8623735,64.1709474 35.0085181,65.0703158" id="Fill-19"></path>
                <path d="M34.661259,70.9165895 C34.6359578,70.0740632 34.6549337,69.7519579 34.954753,69.7128 C35.1938494,69.6799579 35.2950542,69.9325895 35.3279458,70.0146947 L34.871259,70.1978526 C34.9079458,70.2193263 34.9610783,70.2357474 35.0243313,70.2281684 C35.1318614,70.2130105 35.1900542,70.1346947 35.2014398,70.0993263 C35.1951145,70.1195368 35.1622229,70.2572211 35.1824639,70.9014316 L34.661259,70.9165895 Z" id="Fill-21"></path>
                <polygon id="Fill-23" points="36.3661807 81.0810947 32.5608795 74.4886737 32.9517831 74.2650947 36.7570843 80.8549895"></polygon>
                <path d="M34.8842892,72.8496 C34.7261566,72.5388632 34.4263373,72.0992842 33.8836265,71.7784421 C33.2789277,71.4222316 32.6843494,71.4020211 32.382,71.4222316 L32.3529036,70.9725474 C32.7071205,70.9498105 33.4054337,70.9725474 34.1138675,71.3906526 C34.7501928,71.7670737 35.1031446,72.2811789 35.2878434,72.6462316 L34.8842892,72.8496 Z" id="Fill-25"></path>
                <path d="M31.2806386,69.1810105 C30.7518434,69.3426947 30.8859398,71.7755368 31.7461807,73.6008 C32.0447349,74.2323789 32.319253,74.5279579 32.9113012,75.0749053 C32.9745542,75.1330105 33.034012,75.1848 33.0985301,75.1709053 C33.4211205,75.1039579 33.4818434,73.4530105 33.1440723,72.1279579 C32.7632892,70.6298526 31.7436506,69.0395368 31.2806386,69.1810105" id="Fill-27"></path>
                <path d="M59.8964277,101.5248 L59.671247,101.512168 C59.7370301,100.299537 59.5561265,99.1146947 59.1335964,97.9904842 C58.4213675,96.0957474 57.1980542,94.8641684 56.2973313,94.1631158 L56.4352229,93.9850105 C57.3599819,94.7037474 58.6149217,95.9669053 59.3448614,97.9121684 C59.7787771,99.0654316 59.964741,100.280589 59.8964277,101.5248" id="Fill-29"></path>
                <polygon id="Fill-31" points="68.2637892 111.891537 64.0701145 96.4595368 64.5065602 96.3408 68.7002349 111.7728"></polygon>
                <path d="M40.7178614,48.9384 C40.7558133,48.8689263 41.549006,49.1240842 42.5724398,49.7493474 C44.2865964,50.7927158 44.2929217,51.4381895 45.2404518,51.9485053 C46.7699096,52.7733474 47.6402711,51.5695579 50.8054518,51.7160842 C53.0800301,51.8221895 54.8928614,52.5497684 54.8625,52.8744 C54.840994,53.1106105 53.8580422,52.9527158 52.8928012,53.6840842 C52.2476205,54.1729263 52.2425602,54.5784 51.732741,55.1897684 C50.7143675,56.4099789 49.1520181,56.6904 48.4865964,56.8104 C48.1703313,56.8672421 46.4637651,57.1489263 44.6597892,56.3468211 C43.290994,55.7379789 43.2960542,55.1405053 41.9930422,54.7274526 C40.5559337,54.2701895 39.2175,54.4988211 39.2111747,54.3788211 C39.2035843,54.2600842 40.5698494,54.4104 41.4515964,53.5438737 C42.0689458,52.9375579 42.1891265,52.0861895 42.2245482,51.8322947 C42.2688253,51.5278737 42.3535843,50.9291368 42.0815964,50.3152421 C41.6628614,49.3691368 40.6748494,49.0154526 40.7178614,48.9384" id="Fill-33"></path>
                <path d="M40.9057229,54.2285053 C41.2687952,54.2739789 41.6672892,54.3497684 42.0721084,54.4786105 C42.8109036,54.7135579 43.1587952,55.0040842 43.5269277,55.3122947 C43.8356024,55.5699789 44.1543976,55.8377684 44.7666867,56.1093474 C46.4087349,56.8394526 47.9938554,56.6348211 48.4404217,56.5539789 C49.0792771,56.4390316 50.5758434,56.1712421 51.5322289,55.0230316 C51.7194578,54.7994526 51.8345783,54.6024 51.9459036,54.4141895 C52.1293373,54.1009263 52.3026506,53.8053474 52.7353012,53.4769263 C53.3665663,52.9981895 54.0104819,52.8706105 54.3950602,52.7935579 C54.4051807,52.7922947 54.4153012,52.7897684 54.4266867,52.7872421 C53.9257229,52.5055579 52.563253,52.0584 50.7921687,51.9762947 C49.3651807,51.9093474 48.4163855,52.1253474 47.6535542,52.2984 C46.7439759,52.5042947 46.0254217,52.6672421 45.1158434,52.1771368 C44.6578916,51.9295579 44.4048795,51.6579789 44.1126506,51.3434526 C43.7596988,50.9632421 43.3599398,50.5325053 42.4377108,49.9704 C42.3023494,49.8882947 42.1720482,49.8125053 42.0480723,49.7442947 C42.1492771,49.8819789 42.2428916,50.0373474 42.3200602,50.2104 C42.6211446,50.8925053 42.5287952,51.5518737 42.483253,51.8689263 C42.3706627,52.6596632 42.0860241,53.2861895 41.6331325,53.7295579 C41.4092169,53.9506105 41.1587349,54.1110316 40.9057229,54.2285053 M47.3676506,57.1628211 C46.6048193,57.1628211 45.590241,57.0453474 44.5541566,56.5842947 C43.8760843,56.2824 43.513012,55.9792421 43.1929518,55.7114526 C42.8501205,55.4247158 42.5540964,55.1771368 41.9139759,54.9737684 C41.0031325,54.6845053 40.1428916,54.6819789 39.6292771,54.6807158 C39.2307831,54.6794526 38.9676506,54.6794526 38.9512048,54.3952421 C38.933494,54.1148211 39.2168675,54.0832421 39.4648193,54.0554526 C39.8974699,54.0061895 40.7007831,53.9165053 41.2687952,53.3594526 C41.6369277,52.9969263 41.8722289,52.4714526 41.9671084,51.7956632 C42.0088554,51.5064 42.084759,50.9670316 41.8431325,50.4200842 C41.5736747,49.8125053 41.0385542,49.4765053 40.7513855,49.2958737 C40.5957831,49.1973474 40.3592169,49.0495579 40.4895181,48.8120842 L40.5439157,48.7148211 L40.6653614,48.6781895 C40.9487349,48.6024 41.9278916,49.0495579 42.7084337,49.5270316 C43.6926506,50.1257684 44.1366867,50.6045053 44.4946988,50.9897684 C44.7666867,51.2815579 44.981747,51.5139789 45.3637952,51.7198737 C46.1013253,52.1165053 46.6427711,51.9939789 47.5384337,51.7906105 C48.3328916,51.6112421 49.3183735,51.3864 50.8174699,51.4571368 C52.7859036,51.5480842 54.6063253,52.1266105 55.0073494,52.5876632 C55.1148795,52.7101895 55.1287952,52.8238737 55.1224699,52.8984 C55.0959036,53.1851368 54.8049398,53.2432421 54.4975301,53.3038737 C54.1344578,53.3758737 53.5854217,53.4857684 53.0503012,53.8912421 C52.6998795,54.1565053 52.5657831,54.3864 52.395,54.6769263 C52.2786145,54.8752421 52.1470482,55.0988211 51.933253,55.3565053 C50.8541566,56.6499789 49.2272892,56.9417684 48.5327711,57.0668211 C48.3303614,57.1021895 47.9141566,57.1628211 47.3676506,57.1628211" id="Fill-35"></path>
                <path d="M54.852253,79.3072421 C54.8598434,79.3249263 55.8111687,79.0584 56.5486988,78.4040842 C56.7498434,78.2259789 56.7966506,78.1451368 57.6783976,77.2760842 C58.065506,76.8946105 58.1869518,76.7809263 58.3855663,76.6445053 C58.7638193,76.3855579 59.1117108,76.1480842 59.6000241,76.1468211 C60.0314096,76.1442947 60.6297831,76.3261895 60.8967108,76.7645053 C60.9523735,76.8567158 60.9599639,77.1232421 61.1661687,77.3253474 C61.1813494,77.3392421 61.2053855,77.3632421 61.2395422,77.3872421 C61.487494,77.5691368 61.802494,77.5122947 61.8619518,77.5009263 C62.1364699,77.4466105 62.3097831,77.2798737 62.5400241,77.0499789 C62.8689398,76.7215579 62.8246627,76.6381895 63.0485783,76.4285053 C63.1105663,76.3704 63.5697831,75.9560842 64.1795422,75.9762947 C64.4755663,75.9876632 64.7083373,76.1190316 65.1713494,76.3792421 C65.3332771,76.4701895 65.6621928,76.6659789 66.044241,76.9931368 C66.2567711,77.1750316 66.317494,77.2495579 66.779241,77.7270316 C67.2447831,78.2082947 67.4775542,78.4495579 67.6268313,78.5733474 C68.2783373,79.1152421 68.9273133,79.3047158 68.9260482,79.3072421 C68.9260482,79.3085053 68.2935181,79.1468211 67.6103855,78.6466105 C67.4484578,78.5266105 67.3320723,78.4242947 66.044241,77.0499789 C65.7494819,76.7341895 65.5382169,76.5080842 65.1713494,76.3072421 C64.9411084,76.1784 64.6058675,76.0002947 64.1820723,76.0167158 C63.7203253,76.0356632 63.3901446,76.2769263 63.104241,76.4853474 C62.4147831,76.9893474 62.3641807,77.4390316 61.8619518,77.5009263 C61.7569518,77.5135579 61.4141205,77.5552421 61.2597831,77.3682947 C61.1775542,77.2697684 61.0814096,77.1080842 61.0320723,77.0120842 C60.9877952,76.9224 60.9346627,76.7594526 60.900506,76.7670316 C60.899241,76.7670316 60.899241,76.7670316 60.8979759,76.7682947 C60.8524337,76.7859789 60.7651446,76.6344 60.6171325,76.5396632 C60.5564096,76.4992421 60.4754458,76.4638737 60.4691205,76.4727158 C60.4678554,76.4739789 60.4678554,76.4765053 60.4691205,76.4777684 C60.4729157,76.4815579 60.4918916,76.4701895 60.4944217,76.4626105 C60.5032771,76.4322947 60.2806265,76.3501895 60.2806265,76.3501895 C60.0769518,76.2769263 59.7493012,76.1771368 59.6177349,76.1619789 C59.1863494,76.1089263 58.5424337,76.6584 57.855506,77.2470316 C56.7498434,78.1931368 56.5360482,78.4419789 55.9262892,78.7994526 C55.2912289,79.1720842 54.8471928,79.2946105 54.852253,79.3072421" id="Fill-37"></path>
                <path d="M54.8423855,79.4195368 C54.8373253,79.4195368 54.8322651,79.4182737 54.8284699,79.4170105 L54.7715422,79.4043789 L54.7297952,79.3058526 L54.7487711,79.2616421 C54.769012,79.2149053 54.7981084,79.2035368 54.8866627,79.1706947 C55.0397349,79.1125895 55.397747,78.9774316 55.8696145,78.7020632 C56.1922048,78.5125895 56.3984096,78.3572211 56.6982289,78.1020632 C56.7146747,78.0843789 56.7323855,78.0666947 56.7526265,78.0464842 C56.8981084,77.8961684 57.1308795,77.6561684 57.5989518,77.1951158 C57.9923855,76.8073263 58.1150964,76.6923789 58.3213012,76.5509053 C58.7109398,76.2869053 59.0765422,76.0355368 59.6002771,76.0330105 L59.6066024,76.0330105 C60.0822651,76.0330105 60.6793735,76.2313263 60.9716024,76.6721684 C61.0234699,76.7075368 61.0563614,76.7845895 61.0930482,76.8704842 C61.1069639,76.9033263 61.1196145,76.9349053 61.1335301,76.9601684 C61.1828675,77.0574316 61.2739518,77.2077474 61.3473253,77.2961684 C61.4232289,77.3883789 61.5889518,77.4199579 61.8432289,77.3896421 C62.0013614,77.3568 62.119012,77.2848 62.2518434,77.1673263 C62.2986506,77.1205895 62.3454578,77.0662737 62.3973253,77.0043789 C62.4871446,76.9008 62.5896145,76.7820632 62.7249759,76.6544842 C62.7338313,76.6405895 62.7426867,76.6279579 62.7502771,76.6140632 C62.8059398,76.5319579 62.8565422,76.4523789 62.9716627,76.3450105 C63.0614819,76.2616421 63.5447349,75.8485895 64.1823253,75.8650105 C64.3088313,75.8675368 64.4214217,75.8915368 64.5403373,75.9332211 C64.8325663,75.9913263 65.0678675,76.1214316 65.226,76.2073263 C65.499253,76.3576421 65.687747,76.5193263 65.8838313,76.7163789 C65.9622651,76.7770105 66.0406988,76.8414316 66.1178675,76.9071158 C66.2873855,77.0523789 66.360759,77.1294316 66.6061807,77.3858526 L66.8604578,77.6485895 C67.3272651,78.1298526 67.556241,78.3673263 67.6991928,78.4873263 C68.2241928,78.9218526 68.7491928,79.1290105 68.9503373,79.1959579 L68.9984096,79.2123789 L69.0313012,79.2641684 L69.0793735,79.3816421 L68.9579277,79.4157474 C68.9478072,79.4195368 68.922506,79.4170105 68.8883494,79.4094316 L68.8870843,79.4119579 C68.8782289,79.4094316 68.8681084,79.4056421 68.857988,79.4018526 C68.6328072,79.3462737 68.082506,79.1315368 67.5435904,78.7361684 C67.369012,78.6085895 67.2437711,78.4961684 65.9622651,77.1269053 C65.8800361,77.0397474 65.8053976,76.9601684 65.7320241,76.8856421 C65.5321446,76.7315368 65.3259398,76.5963789 65.1159398,76.4776421 C64.8376265,76.3210105 64.6453373,76.2123789 64.4745542,76.1504842 C64.3834699,76.1340632 64.2873253,76.1264842 64.1861205,76.1302737 C63.7585301,76.1466947 63.4473253,76.3753263 63.1715422,76.5761684 C63.0665422,76.6532211 62.9767229,76.7277474 62.8982892,76.8010105 C62.8426265,76.8831158 62.7641928,76.9841684 62.6187108,77.1294316 C62.5466024,77.2014316 62.4770241,77.2709053 62.4061807,77.3340632 C62.264494,77.4780632 62.1164819,77.5829053 61.8786506,77.6119579 C61.7761807,77.6321684 61.4422048,77.6751158 61.172747,77.4793263 C61.1322651,77.4490105 61.1056988,77.4237474 61.0867229,77.4048 C60.9235301,77.2456421 60.8691325,77.0511158 60.8337108,76.9222737 C60.8273855,76.9020632 60.8210602,76.8780632 60.8147349,76.8591158 C60.7755181,76.8389053 60.7438916,76.8048 60.7097349,76.7694316 C60.667988,76.7264842 60.6161205,76.6721684 60.5553976,76.6342737 C60.5300964,76.6165895 60.5022651,76.6026947 60.4820241,76.5938526 L60.4428072,76.6026947 L60.3251566,76.4978526 L60.3289518,76.4915368 C60.3011205,76.4801684 60.2720241,76.4675368 60.2416627,76.4561684 C60.037988,76.3829053 59.7217229,76.2881684 59.6040723,76.2742737 C59.219494,76.2300632 58.5629277,76.7883789 57.9278675,77.3328 C57.6394337,77.5791158 57.4117229,77.7786947 57.2219639,77.9454316 C57.0828072,78.0679579 56.9626265,78.1728 56.8525663,78.2662737 C56.7602169,78.3610105 56.7045542,78.4165895 56.6235904,78.4885895 C55.9303373,79.1024842 54.997988,79.4195368 54.8423855,79.4195368" id="Fill-39"></path>
                <path d="M54.9009578,79.7993684 C54.8705964,79.8296842 55.7409578,80.5648421 55.848488,80.5042105 C55.8510181,80.5029474 55.8952952,80.4764211 55.8978253,80.4789474 C55.8990904,80.4814737 55.8750542,80.4915789 55.8725241,80.5042105 C55.8611386,80.5623158 56.164753,80.6974737 56.4557169,80.7467368 C56.7163193,80.7896842 56.9237892,80.7568421 56.9908373,80.7467368 C58.0269217,80.5762105 58.4241506,80.1997895 59.1287892,80.2604211 C59.6310181,80.3033684 59.6626446,80.4941053 60.4419217,80.6014737 C60.6924036,80.6343158 60.8378855,80.6355789 61.0251145,80.7467368 C61.2844518,80.8995789 61.3654157,81.1130526 61.6323434,81.1585263 C61.6955964,81.1698947 61.7727651,81.1623158 61.9245723,81.1345263 C62.4192108,81.0410526 62.4925843,80.7593684 62.9201747,80.5762105 C63.4110181,80.3665263 63.9208373,80.4776842 64.038488,80.5042105 C64.376259,80.5762105 64.6710181,80.6974737 64.6710181,80.6974737 C64.8835482,80.7846316 64.9202349,80.8250526 65.0593916,80.8427368 C65.321259,80.8781053 65.6185482,80.7947368 65.6185482,80.7947368 C65.8766205,80.7997895 66.3649337,80.7757895 66.9063795,80.5282105 C67.4921024,80.2591579 67.9665,79.8094737 67.9272831,79.7513684 C67.8716205,79.6692632 67.001259,80.6633684 65.6425843,80.7947368 C64.3610783,80.9185263 63.8651747,80.1581053 62.9454759,80.5762105 C62.4154157,80.8174737 62.1586084,81.2595789 61.6563795,81.1837895 C61.3692108,81.1395789 61.2515602,80.9627368 61.0010783,80.7707368 C60.2901145,80.2263158 59.1186687,80.0204211 58.2546325,80.3084211 C57.9522831,80.4107368 57.7093916,80.5673684 57.1616205,80.6734737 C56.9301145,80.7189474 56.7137892,80.7593684 56.4810181,80.7467368 C55.5385482,80.6911579 54.9300542,79.7703158 54.9009578,79.7993684" id="Fill-41"></path>
                <path d="M61.7711205,81.3044211 C61.7293735,81.3044211 61.6850964,81.3018947 61.6395542,81.2943158 C61.3953976,81.2576842 61.2537108,81.1326316 61.1031687,81.0025263 C61.0513012,80.9583158 60.9969036,80.9103158 60.9323855,80.8597895 C60.8931687,80.8307368 60.8526867,80.8029474 60.8109398,80.7738947 C60.7337711,80.7511579 60.6515422,80.7410526 60.542747,80.7271579 L60.4276265,80.712 C59.997506,80.6538947 59.7811807,80.568 59.6066024,80.4985263 C59.4560602,80.4391579 59.3371446,80.3911579 59.1195542,80.3734737 C58.7476265,80.3406316 58.464253,80.4391579 58.1049759,80.5642105 C57.8089518,80.6652632 57.4749759,80.7814737 57.0094337,80.8572632 C56.8184096,80.8901053 56.6261205,80.8901053 56.4376265,80.8572632 C56.4325663,80.8572632 56.4287711,80.8572632 56.4237108,80.856 C55.7165422,80.7928421 55.2029277,80.2837895 54.9625663,80.0223158 C54.8765422,79.9452632 54.8221446,79.8909474 54.8196145,79.8884211 L54.7601566,79.8101053 L54.8537711,79.6863158 L54.9043735,79.6863158 C54.9625663,79.6875789 54.9903976,79.7178947 55.0700964,79.8063158 C55.0979277,79.8366316 55.1308193,79.8745263 55.1713012,79.9162105 C55.3787711,80.0955789 55.7076867,80.3469474 55.8202771,80.3898947 C55.8949157,80.3507368 55.9543735,80.3595789 55.9923253,80.4189474 L56.0467229,80.5035789 C56.1365422,80.5465263 56.2896145,80.6008421 56.4528072,80.6311579 C56.4641928,80.6324211 56.4755783,80.6336842 56.4869639,80.6336842 C56.7070843,80.6463158 56.9170843,80.6058947 57.1397349,80.5629474 C57.5053373,80.4922105 57.7343133,80.3962105 57.9354578,80.3128421 C58.0303373,80.2736842 58.1214217,80.2345263 58.2188313,80.2029474 C59.0563012,79.9212632 60.1543735,80.0778947 60.9108795,80.5692632 C60.9665422,80.5894737 61.0234699,80.6134737 61.0829277,80.6488421 C61.1967831,80.7170526 61.279012,80.7953684 61.3511205,80.8623158 C61.4523253,80.9583158 61.5256988,81.0252632 61.6522048,81.048 C61.697747,81.0568421 61.7698554,81.0492632 61.9026867,81.024 C62.0355181,80.9987368 62.1354578,80.9595789 62.2189518,80.9103158 C62.2720843,80.8749474 62.3252169,80.8357895 62.3821446,80.7953684 C62.3947952,80.7852632 62.4087108,80.7751579 62.4213614,80.7650526 C62.4276867,80.7612632 62.434012,80.7549474 62.4403373,80.7524211 C62.5529277,80.6589474 62.6819639,80.5553684 62.8767831,80.4732632 C62.9438313,80.4429474 63.0247952,80.4151579 63.1184096,80.3911579 C63.2714819,80.3469474 63.4156988,80.3317895 63.5535904,80.3381053 C63.7066627,80.3393684 63.8761807,80.352 64.0634096,80.3936842 C64.406241,80.4682105 64.701,80.5882105 64.7136506,80.5945263 C64.7579277,80.6109474 64.7946145,80.6273684 64.826241,80.6425263 C65.0488916,80.6867368 65.2968434,80.7094737 65.5865422,80.6867368 L65.5878072,80.6867368 L65.604253,80.6816842 L65.6206988,80.6816842 C65.624494,80.6829474 65.6295542,80.6829474 65.6346145,80.6829474 C66.5947952,80.5894737 67.3032289,80.0513684 67.6435301,79.7924211 C67.809253,79.6661053 67.8649157,79.6256842 67.9382892,79.6357895 L67.9863614,79.6433684 L68.0205181,79.6875789 C68.0331687,79.7052632 68.0521446,79.7456842 68.0369639,79.8 C67.9901566,79.968 67.4702169,80.3924211 66.9540723,80.6311579 C66.5454578,80.8168421 66.0837108,80.9153684 65.6434699,80.9090526 C65.6371446,80.9090526 65.6308193,80.9103158 65.624494,80.9103158 C65.5447952,80.9292632 65.2841928,80.9873684 65.0438313,80.9557895 C64.9337711,80.9406316 64.8755783,80.9128421 64.7870241,80.8724211 C64.7769036,80.8673684 64.7680482,80.8635789 64.7579277,80.8585263 C64.5605783,80.8181053 64.3822048,80.7625263 64.2152169,80.7107368 C63.9824458,80.6387368 63.7749759,80.5743158 63.5611807,80.5642105 C63.4119036,80.5642105 63.2841325,80.5844211 63.1753373,80.6096842 C63.1158795,80.6273684 63.0551566,80.6501053 62.9919036,80.6791579 C62.8274458,80.7536842 62.6908193,80.8496842 62.559253,80.9456842 C62.4909398,81 62.4213614,81.0543158 62.3391325,81.1023158 C62.1670843,81.2172632 61.9899759,81.3044211 61.7711205,81.3044211" id="Fill-43"></path>
                <path d="M68.0976867,80.7467368 C67.8687108,81.3063158 67.0818434,83.0393684 65.1323855,84.1673684 C64.5719639,84.4932632 63.0893133,85.2448421 61.341,85.0894737 C57.4926867,84.7496842 55.1232289,80.2578947 55.1194314,80.26042 C55.1169036,80.2629474 57.2118434,84.8406316 61.341,85.1147368 C63.084253,85.2296842 64.4732892,84.5311579 65.1564217,84.1193684" id="Fill-45"></path>
                <path d="M61.7205181,85.2394105 C61.5914819,85.2394105 61.4624458,85.2356211 61.3334096,85.2267789 C57.1334096,84.9488842 55.0270843,80.3434105 55.0119036,80.2966737 L54.9524458,80.1160421 L55.1915422,80.1602526 L55.2269639,80.2208842 C55.4787108,80.6756211 57.7950361,84.6634105 61.3511205,84.9779368 C61.9330482,85.0284632 62.4858795,84.9792 62.9881084,84.8756211 C63.7053976,84.7189895 64.4176265,84.4322526 65.0982289,84.0229895 L65.1134096,84.0482526 C66.8490723,83.0288842 67.661241,81.5181474 67.9926867,80.7034105 L68.2026867,80.7893053 C67.8585904,81.6343579 67.0084699,83.2133053 65.1893133,84.2655158 C64.7326265,84.5295158 63.9761205,84.8983579 63.0500964,85.0928842 C62.6073253,85.1901474 62.1620241,85.2394105 61.7205181,85.2394105" id="Fill-47"></path>
                <path d="M58.6795663,69.8890105 C58.8060723,69.9142737 59.2602289,70.0203789 59.6005301,70.4460632 C59.8965542,70.8149053 59.933241,71.2102737 59.9395663,71.3492211" id="Fill-49"></path>
                <path d="M59.8265964,71.3545263 C59.817741,71.1776842 59.7658735,70.8341053 59.5115964,70.5170526 C59.2143072,70.1431579 58.8158133,70.0307368 58.6576807,70.0004211 L58.7019578,69.7781053 C58.8841265,69.8147368 59.3446084,69.9448421 59.6887048,70.3768421 C59.9821988,70.7431579 60.0429217,71.1397895 60.0530422,71.3431579 L59.8265964,71.3545263 Z" id="Fill-51"></path>
                <path d="M63.8398735,71.8010526 C63.8765602,71.6886316 64.0144518,71.3210526 64.4053554,71.0671579 C64.7684277,70.8296842 65.1315,70.8334737 65.2529458,70.8410526" id="Fill-53"></path>
                <path d="M63.9466446,71.8368 L63.7328494,71.7648 C63.7948373,71.5765895 63.9580301,71.2241684 64.3426084,70.9715368 C64.7056807,70.7365895 65.0725482,70.7176421 65.2597771,70.7290105 L65.2458614,70.9538526 C65.0864639,70.9462737 64.775259,70.9601684 64.4665843,71.1622737 C64.1389337,71.3757474 63.9997771,71.6763789 63.9466446,71.8368" id="Fill-55"></path>
                <path d="M66.695494,0.755873684 C66.6916988,0.699031579 63.168506,0.438821053 58.947,1.53018947 C57.036759,2.02282105 48.9074819,4.25608421 43.8396506,11.9739789 C42.9098313,13.3874526 39.962241,17.9954526 39.7712169,24.1584 C39.6573614,27.8278737 40.5429036,31.3584 39.5776627,31.7019789 C39.3309759,31.7891368 38.9046506,31.6893474 37.0601928,29.5735579 C35.6610361,27.9693474 33.5863373,25.5920842 32.991759,24.1584 C30.8753133,19.0514526 39.8015783,7.2384 51.973988,2.88429474 C59.4188675,0.220294737 66.7018193,0.837978947 66.695494,0.755873684" id="Fill-57"></path>
                <path d="M57.9679699,1.56682105 C55.8882108,1.91924211 53.9121867,2.43082105 52.0512831,3.09524211 C43.2464639,6.24682105 36.2228494,13.3394526 33.8356807,18.7179789 C32.8704398,20.8931368 32.6503193,22.7449263 33.2006205,24.0725053 C33.7812831,25.4708211 35.8559819,27.8506105 37.2298373,29.4257684 C38.8098976,31.2358737 39.3361627,31.5466105 39.5018855,31.4885053 C39.9332711,31.3356632 39.8118253,29.7301895 39.6967048,28.1790316 C39.6043554,26.9588211 39.5018855,25.5769263 39.5448976,24.1508211 C39.6359819,21.2531368 40.4203193,16.7676632 43.6500181,11.8501895 C47.8411627,5.46871579 54.0880301,2.71503158 57.9679699,1.56682105 M39.448753,31.9533474 C39.0882108,31.9533474 38.5088133,31.5781895 36.8895361,29.7226105 C35.4967048,28.1247158 33.3916446,25.7120842 32.7831506,24.2442947 C32.1847771,22.8005053 32.4061627,20.8261895 33.4232711,18.5348211 C35.8483916,13.0678737 42.9744759,5.86408421 51.8982108,2.67082105 C55.2898373,1.45818947 59.0571867,0.754610526 63.1306807,0.572715789 C65.2281506,0.373136842 66.6968855,0.479242105 66.8246566,0.570189474 L66.9106807,0.630821053 L66.9283916,0.836715789 L66.8600783,0.911242105 C66.7816446,0.994610526 66.770259,0.994610526 66.2503193,0.985768421 C65.2281506,0.965557895 64.2236928,0.976926316 63.2382108,1.01987368 C62.0199578,1.12976842 60.5600783,1.34576842 59.0040542,1.74871579 C55.325259,2.69861053 48.4863434,5.30829474 44.0282711,12.0977684 C40.8567651,16.9268211 40.0850783,21.3264 39.9977892,24.1659789 C39.953512,25.5668211 40.0559819,26.9360842 40.1470663,28.1449263 C40.3051988,30.2518737 40.4089337,31.6451368 39.6536928,31.9141895 C39.5904398,31.9356632 39.5233916,31.9533474 39.448753,31.9533474" id="Fill-59"></path>
                <path d="M63.6026747,96.2933053 C56.6802651,96.2933053 51.6870723,90.0621474 48.0310482,85.5008842 L48.384,85.2179368 C51.9818313,89.7084632 56.8978554,95.8423579 63.6039398,95.8423579 C63.6671928,95.8423579 63.7317108,95.8423579 63.7949639,95.8410947 C70.3985783,95.7261474 75.0603253,90.2579368 79.1743012,85.4314105 C79.4665301,85.0890947 79.7562289,84.7493053 80.0421325,84.4170947 L80.4191205,83.9775158 C81.7259277,82.4667789 83.075747,80.9017263 84.0308675,79.1206737 C85.1086988,77.1097263 85.6830361,74.7653053 85.6880964,72.3387789 L86.140988,72.3400421 C86.1346627,74.8410947 85.5426145,77.2587789 84.4293614,79.3341474 C83.4502048,81.1606737 82.0839398,82.7421474 80.7619518,84.2718316 L80.3849639,84.7101474 C80.0990602,85.0436211 79.8106265,85.3808842 79.5183976,85.7244632 C75.3424337,90.6229895 70.6098434,96.1733053 63.8025542,96.2920421 C63.735506,96.2933053 63.6697229,96.2933053 63.6026747,96.2933053" id="Fill-61"></path>
                <path d="M45.9158675,82.7957053 C44.3788193,80.7544421 43.0833976,78.8003368 41.9562289,76.8222316 L42.3496627,76.5999158 C43.4654458,78.5590737 44.750747,80.4980211 46.2776747,82.5241263 L45.9158675,82.7957053 Z" id="Fill-63"></path>
                <path d="M40.1810964,73.3774737 C38.9590482,70.7614737 37.8166988,67.9029474 36.6920602,64.6414737 C34.9690482,59.6494737 34.6527831,54.0246316 35.7761566,48.3770526 C35.9013976,47.7492632 36.0430843,47.1151579 36.1797108,46.5012632 C36.6212169,44.5181053 37.0779036,42.4667368 37.0310964,40.4027368 C36.9741687,37.9534737 36.3947711,35.3412632 35.3093494,32.6381053 L35.7280843,32.4701053 C36.835012,35.2237895 37.4245301,37.8890526 37.4827229,40.3913684 C37.5307952,42.5109474 37.0690482,44.5888421 36.6212169,46.5985263 C36.4845904,47.2098947 36.3441687,47.8427368 36.2201928,48.4642105 C35.112,54.0347368 35.4232048,59.5774737 37.1196506,64.4949474 C38.2392289,67.7412632 39.375253,70.5846316 40.5909759,73.1867368 L40.1810964,73.3774737 Z" id="Fill-65"></path>
                <path d="M44.4871084,84.9063158 C44.0822892,85.3042105 43.9001205,85.5290526 43.9393373,85.5808421 C43.9696988,85.62 44.1253012,85.5618947 44.4061446,85.4065263" id="Fill-67"></path>
                <path d="M38.7857349,41.2311158 C38.8262169,41.3751158 39.775012,41.0264842 41.3968193,41.0138526 C42.4366988,41.0050105 42.6479639,41.1439579 45.043988,41.3397474 C46.2027831,41.4344842 46.0775422,41.3953263 46.5671205,41.4483789 C49.1857952,41.7288 50.9556145,42.6382737 50.9745904,42.5890105 C50.9973614,42.5296421 48.2736867,41.3372211 46.1863373,40.8509053 C46.0294699,40.8142737 45.8485663,40.7751158 44.9883253,40.5793263 C43.3007349,40.1940632 43.2298916,40.1688 42.9756145,40.1448 C42.0027831,40.0500632 41.2374217,40.2370105 40.7440482,40.3620632 C39.7623614,40.6109053 38.7427229,41.0795368 38.7857349,41.2311158" id="Fill-69"></path>
                <path d="M41.4808193,40.9005474 C42.0032892,40.9005474 42.3309398,40.9397053 42.8559398,41.0041263 C43.322747,41.0597053 43.9616024,41.1380211 45.0533494,41.2277053 C45.6719639,41.2782316 45.9186506,41.2908632 46.0982892,41.2984421 C46.2526265,41.3072842 46.3487711,41.3110737 46.579012,41.3363368 C47.2697349,41.4096 47.901,41.5270737 48.4576265,41.6597053 C47.712506,41.3919158 46.8952771,41.1317053 46.1602771,40.9599158 L45.9110602,40.9030737 C45.7415422,40.8664421 45.4708193,40.8045474 44.9635301,40.6896 L44.1197349,40.4963368 C43.2506386,40.2954947 43.1595542,40.2752842 42.9647349,40.2563368 C41.9931687,40.1628632 41.2290723,40.3548632 40.7723855,40.4710737 C40.004494,40.6656 39.3150361,40.9649684 39.0278675,41.1405474 C39.1126265,41.1291789 39.2163614,41.1114947 39.3200964,41.0950737 C39.7780482,41.0205474 40.4725663,40.9081263 41.3973253,40.9005474 L41.4808193,40.9005474 Z M50.9725663,42.7056 C50.9295542,42.7056 50.8663012,42.6803368 50.6891928,42.6096 C50.1173855,42.3822316 48.5967831,41.7784421 46.5549759,41.5599158 C46.3310602,41.5359158 46.2374458,41.5321263 46.0869036,41.5245474 C45.9161205,41.5157053 45.6567831,41.5030737 45.0343735,41.4525474 C43.9388313,41.3628632 43.2974458,41.2845474 42.8281084,41.2277053 C42.2664217,41.1594947 41.959012,41.1228632 41.3985904,41.1266526 C40.4915422,41.1342316 39.8084096,41.2441263 39.3555181,41.3186526 C38.8950361,41.3931789 38.7217229,41.4209684 38.6774458,41.2618105 C38.6685904,41.2327579 38.6647952,41.1872842 38.6964217,41.1354947 C38.8381084,40.8904421 39.8982289,40.4597053 40.7167229,40.2525474 C41.1873253,40.1338105 41.9754578,39.9329684 42.986241,40.0327579 C43.196241,40.0529684 43.2885904,40.0731789 44.1703373,40.2752842 L45.0141325,40.4685474 C45.5214217,40.5847579 45.7921446,40.6453895 45.9603976,40.6832842 L46.2121446,40.7413895 C48.1413614,41.1910737 50.9852169,42.3645474 51.0737711,42.5338105 L51.0990723,42.5792842 L51.0636506,42.6740211 L51.0193735,42.6942316 C51.0029277,42.7005474 50.989012,42.7056 50.9725663,42.7056 Z" id="Fill-71"></path>
                <path d="M36.4514458,35.3624842 C35.0054819,31.1902737 34.5690361,28.9544842 35.1408434,28.6576421 C35.2913855,28.5793263 35.5089759,28.6349053 35.7961446,28.8205895" id="Fill-73"></path>
                <path d="M36.2382831,35.4365053 C34.2698494,29.7586105 34.5266566,28.7228211 35.0364759,28.4575579 C35.2667169,28.3375579 35.5551506,28.3956632 35.919488,28.6318737 L35.6728012,29.0108211 C35.4375,28.8567158 35.2945482,28.8314526 35.2452108,28.8579789 C35.1313554,28.9173474 34.660753,29.5072421 36.6646084,35.2887158 L36.2382831,35.4365053 Z" id="Fill-75"></path>
                <path d="M116.393006,55.9820211 L115.995777,59.2005474 L117.11156,59.2005474 C117.417705,59.2005474 117.684633,59.1538105 117.918669,59.0616 C118.15144,58.9681263 118.346259,58.8380211 118.504392,58.6712842 C118.661259,58.5070737 118.78144,58.3074947 118.863669,58.0776 C118.947163,57.8464421 118.987645,57.5950737 118.987645,57.3234947 C118.987645,57.1150737 118.957283,56.9293895 118.89656,56.7651789 C118.835837,56.6009684 118.743488,56.4594947 118.622042,56.3445474 C118.500596,56.2283368 118.346259,56.1386526 118.15903,56.0754947 C117.974331,56.0136 117.756741,55.9820211 117.510054,55.9820211 L116.393006,55.9820211 Z M115.898367,59.9938105 L115.542886,62.8801263 L114.544753,62.8801263 L115.484693,55.1925474 L117.606199,55.1925474 C118.014813,55.1925474 118.36903,55.2418105 118.67138,55.3390737 C118.971199,55.4350737 119.219151,55.5727579 119.415235,55.7508632 C119.610054,55.9302316 119.755536,56.1449684 119.851681,56.3950737 C119.950355,56.6451789 119.998428,56.9243368 119.998428,57.2312842 C119.998428,57.6367579 119.93138,58.0081263 119.798548,58.3453895 C119.666982,58.6826526 119.474693,58.9744421 119.220416,59.2169684 C118.968669,59.4594947 118.657464,59.6502316 118.286801,59.7879158 C117.914873,59.9256 117.491078,59.9938105 117.015416,59.9938105 L115.898367,59.9938105 Z" id="Fill-77"></path>
                <path d="M122.237711,62.2101474 C122.499578,62.2101474 122.738675,62.1381474 122.951205,61.9954105 C123.166265,61.8526737 123.349699,61.6619368 123.500241,61.4244632 C123.650783,61.1857263 123.767169,60.9116211 123.849398,60.6008842 C123.931627,60.2888842 123.973373,59.9642526 123.973373,59.6244632 C123.973373,59.1242526 123.874699,58.7465684 123.677349,58.4926737 C123.48,58.2387789 123.196627,58.1112 122.823434,58.1112 C122.557771,58.1112 122.318675,58.1832 122.106145,58.3234105 C121.893614,58.4648842 121.711446,58.6543579 121.560904,58.8930947 C121.410361,59.1305684 121.293976,59.4046737 121.211747,59.7154105 C121.129518,60.0261474 121.089036,60.3520421 121.089036,60.6918316 C121.089036,61.1920421 121.185181,61.5709895 121.381265,61.8261474 C121.576084,62.0813053 121.861988,62.2101474 122.237711,62.2101474 M122.151687,62.9554105 C121.854398,62.9554105 121.58241,62.9048842 121.334458,62.8025684 C121.089036,62.7015158 120.875241,62.5524632 120.695602,62.3604632 C120.517229,62.1672 120.376807,61.9309895 120.276867,61.6518316 C120.176928,61.3739368 120.126325,61.0543579 120.126325,60.6968842 C120.126325,60.2396211 120.198434,59.8088842 120.341386,59.4046737 C120.484337,59.0004632 120.681687,58.6467789 120.929639,58.3423579 C121.178855,58.0379368 121.472349,57.7992 121.811386,57.6236211 C122.149157,57.4480421 122.516024,57.3608842 122.909458,57.3608842 C123.206747,57.3608842 123.478735,57.4114105 123.726687,57.5137263 C123.973373,57.6147789 124.185904,57.7625684 124.365542,57.9558316 C124.543916,58.1490947 124.684337,58.3865684 124.784277,58.6669895 C124.885482,58.9474105 124.934819,59.2644632 124.934819,59.6194105 C124.934819,60.0728842 124.862711,60.5023579 124.719759,60.9065684 C124.576807,61.3107789 124.379458,61.6644632 124.131506,61.9688842 C123.882289,62.2733053 123.58753,62.5133053 123.248494,62.6901474 C122.906928,62.8682526 122.54259,62.9554105 122.151687,62.9554105" id="Fill-79"></path>
                <path d="M127.341217,62.1891789 C127.51453,62.1891789 127.685313,62.1361263 127.859892,62.0300211 C128.03447,61.9251789 128.202723,61.7786526 128.365916,61.5904421 C128.527843,61.4022316 128.680916,61.1786526 128.822602,60.9197053 C128.963024,60.6607579 129.085735,60.3765474 129.18947,60.0696 L129.367843,58.6321263 C129.231217,58.4426526 129.068024,58.3087579 128.878265,58.2291789 C128.687241,58.1508632 128.496217,58.1117053 128.303928,58.1117053 C128.020554,58.1117053 127.765012,58.1950737 127.537301,58.3630737 C127.310855,58.5310737 127.116036,58.7483368 126.956639,59.0161263 C126.798506,59.2826526 126.675795,59.5794947 126.589771,59.9079158 C126.503747,60.2376 126.460735,60.5609684 126.460735,60.8792842 C126.460735,61.3062316 126.536639,61.6308632 126.690976,61.8531789 C126.845313,62.0767579 127.061639,62.1891789 127.341217,62.1891789 Z M129.29194,62.8801263 C129.165434,62.8801263 129.08194,62.8472842 129.036398,62.7841263 C128.99212,62.7197053 128.969349,62.6401263 128.969349,62.5479158 L129.071819,61.4161263 C128.936458,61.6485474 128.787181,61.8594947 128.626518,62.0489684 C128.46459,62.2384421 128.295072,62.4001263 128.117964,62.5340211 C127.940855,62.6691789 127.756157,62.7727579 127.565133,62.8460211 C127.372843,62.9192842 127.178024,62.9546526 126.98194,62.9546526 C126.516398,62.9546526 126.155855,62.7866526 125.899048,62.4481263 C125.642241,62.1108632 125.515735,61.6207579 125.515735,60.9765474 C125.515735,60.6834947 125.544831,60.3904421 125.606819,60.0961263 C125.667542,59.8030737 125.753566,59.5226526 125.867422,59.2536 C125.980012,58.9858105 126.115373,58.7369684 126.274771,58.5058105 C126.434169,58.2746526 126.612542,58.0763368 126.807361,57.9083368 C127.002181,57.7403368 127.213446,57.6077053 127.443687,57.5104421 C127.672663,57.4144421 127.913024,57.3664421 128.163506,57.3664421 C128.427904,57.3664421 128.67206,57.4182316 128.892181,57.5218105 C129.111036,57.6253895 129.29953,57.7731789 129.452602,57.9664421 L129.82453,54.9790737 L130.76447,54.9790737 L129.786578,62.8801263 L129.29194,62.8801263 Z" id="Fill-81"></path>
                <path d="M133.214259,54.9790737 L132.643717,59.6300211 L132.810705,59.6300211 C132.881548,59.6300211 132.941006,59.6199158 132.987813,59.5997053 C133.033355,59.5807579 133.086488,59.5403368 133.143416,59.4797053 L134.943596,57.6392842 C135.000524,57.5824421 135.056187,57.5357053 135.110584,57.5003368 C135.163717,57.4649684 135.23456,57.4460211 135.319319,57.4460211 L136.163114,57.4460211 L134.061849,59.5757053 C134.008717,59.6338105 133.955584,59.6856 133.903717,59.7348632 C133.851849,59.7828632 133.796187,59.8245474 133.734199,59.8599158 C133.792392,59.9028632 133.840464,59.9533895 133.879681,60.0102316 C133.920163,60.0670737 133.958114,60.1302316 133.997331,60.1984421 L135.630524,62.8801263 L134.8095,62.8801263 C134.729801,62.8801263 134.666548,62.8662316 134.618476,62.8384421 C134.569139,62.8093895 134.526127,62.7601263 134.48691,62.6919158 L133.100404,60.4662316 C133.053596,60.3954947 133.009319,60.3474947 132.963777,60.3209684 C132.9195,60.2969684 132.846127,60.2843368 132.746187,60.2843368 L132.562753,60.2843368 L132.246488,62.8801263 L131.300223,62.8801263 L132.273054,54.9790737 L133.214259,54.9790737 Z" id="Fill-83"></path>
                <path d="M136.415241,62.88 L137.071807,57.4408421 L137.548735,57.4408421 C137.64994,57.4408421 137.728373,57.4648421 137.785301,57.5115789 C137.842229,57.5570526 137.871325,57.6290526 137.871325,57.7250526 C137.871325,57.7402105 137.87006,57.7604211 137.86753,57.7869474 C137.866265,57.8134737 137.865,57.8412632 137.863735,57.8703158 C137.861205,57.8993684 137.85994,57.9233684 137.858675,57.9448421 C137.856145,57.9663158 137.85488,57.9802105 137.85488,57.984 L137.780241,58.9705263 C138.013012,58.4690526 138.273614,58.0825263 138.560783,57.8109474 C138.850482,57.5393684 139.152831,57.4042105 139.471627,57.4042105 C139.622169,57.4042105 139.772711,57.4357895 139.923253,57.5002105 L139.75247,58.4172632 C139.582952,58.3503158 139.421024,58.3162105 139.262892,58.3162105 C138.916265,58.3162105 138.60506,58.4842105 138.334337,58.8227368 C138.061084,59.16 137.833373,59.6728421 137.651205,60.3587368 L137.35012,62.88 L136.415241,62.88 Z" id="Fill-85"></path>
                <path d="M142.680072,58.0580211 C142.453627,58.0580211 142.246157,58.1047579 142.056398,58.1969684 C141.866639,58.2904421 141.698386,58.4180211 141.551639,58.5809684 C141.404892,58.7439158 141.279651,58.9346526 141.175916,59.1544421 C141.072181,59.3742316 140.991217,59.6117053 140.934289,59.8656 C141.485855,59.7973895 141.927361,59.7203368 142.261337,59.6331789 C142.594048,59.5447579 142.84959,59.4500211 143.027964,59.3477053 C143.207602,59.2453895 143.326518,59.1367579 143.384711,59.0180211 C143.441639,58.9005474 143.46947,58.7767579 143.46947,58.6479158 C143.46947,58.5847579 143.454289,58.5165474 143.426458,58.4470737 C143.397361,58.3776 143.351819,58.3144421 143.289831,58.2563368 C143.227843,58.1994947 143.145614,58.1514947 143.045675,58.1136 C142.94447,58.0769684 142.823024,58.0580211 142.680072,58.0580211 M144.324651,58.6100211 C144.324651,58.8462316 144.275313,59.0634947 144.179169,59.2630737 C144.081759,59.4601263 143.904651,59.6394947 143.647843,59.7986526 C143.389771,59.9578105 143.034289,60.0967579 142.583928,60.2154947 C142.131036,60.3329684 141.551639,60.4264421 140.843205,60.4997053 C140.83941,60.5376 140.83688,60.5767579 140.83688,60.6133895 L140.83688,60.7296 C140.83688,61.2096 140.94188,61.5746526 141.15188,61.8260211 C141.360614,62.0799158 141.67688,62.2049684 142.09941,62.2049684 C142.271458,62.2049684 142.42453,62.1872842 142.558627,62.1506526 C142.693988,62.1152842 142.812904,62.0723368 142.917904,62.0205474 C143.024169,61.9674947 143.117783,61.9106526 143.198747,61.8474947 C143.279711,61.7856 143.353084,61.7274947 143.421398,61.6757053 C143.489711,61.6239158 143.551699,61.5809684 143.608627,61.5456 C143.666819,61.5089684 143.723747,61.4912842 143.780675,61.4912842 C143.845193,61.4912842 143.904651,61.5216 143.959048,61.5822316 L144.194349,61.8765474 C144.012181,62.0672842 143.833807,62.2289684 143.659229,62.3628632 C143.487181,62.4980211 143.308807,62.6091789 143.126639,62.6988632 C142.943205,62.7872842 142.753446,62.8529684 142.553566,62.8946526 C142.354952,62.9350737 142.139892,62.9552842 141.912181,62.9552842 C141.599711,62.9552842 141.321398,62.9034947 141.073446,62.7999158 C140.826759,62.6963368 140.616759,62.5498105 140.444711,62.3565474 C140.272663,62.1658105 140.139831,61.9346526 140.047482,61.6630737 C139.955133,61.3914947 139.908325,61.0870737 139.908325,60.7510737 C139.908325,60.4719158 139.937422,60.1940211 139.99688,59.9173895 C140.055072,59.6394947 140.141096,59.3754947 140.253687,59.1253895 C140.367542,58.8752842 140.504169,58.6428632 140.667361,58.4281263 C140.830554,58.2133895 141.017783,58.0289684 141.227783,57.8736 C141.436518,57.7169684 141.666759,57.5944421 141.918506,57.5060211 C142.172783,57.4163368 142.443506,57.3721263 142.733205,57.3721263 C143.008988,57.3721263 143.246819,57.4100211 143.447964,57.4896 C143.649108,57.5679158 143.813566,57.6677053 143.942602,57.7902316 C144.071639,57.9114947 144.167783,58.0453895 144.229771,58.1919158 C144.291759,58.3384421 144.324651,58.4786526 144.324651,58.6100211" id="Fill-87"></path>
                <path d="M148.858247,55.1074105 L147.526139,56.4867789 C147.475536,56.5398316 147.424934,56.5777263 147.371801,56.5992 C147.319934,56.6206737 147.257946,56.6307789 147.187102,56.6307789 L146.639331,56.6307789 L147.531199,55.3322526 C147.580536,55.2539368 147.636199,55.1970947 147.698187,55.1604632 C147.75891,55.1250947 147.844934,55.1074105 147.954994,55.1074105 L148.858247,55.1074105 Z M148.428127,58.3158316 C148.400295,58.3587789 148.371199,58.3903579 148.343367,58.4093053 C148.313006,58.4295158 148.277584,58.4383579 148.235837,58.4383579 C148.185235,58.4383579 148.130837,58.4194105 148.07138,58.3802526 C148.011922,58.3410947 147.939813,58.2968842 147.856319,58.2488842 C147.772825,58.1996211 147.66909,58.1554105 147.547645,58.1137263 C147.424934,58.0733053 147.278187,58.0530947 147.106139,58.0530947 C146.945476,58.0530947 146.798729,58.0745684 146.667163,58.1200421 C146.533066,58.1642526 146.419211,58.2261474 146.321801,58.3044632 C146.225657,58.3840421 146.151018,58.4762526 146.099151,58.5810947 C146.047283,58.6859368 146.021982,58.7983579 146.021982,58.9170947 C146.021982,59.0838316 146.077645,59.2189895 146.18897,59.3187789 C146.29903,59.4198316 146.439452,59.5057263 146.607705,59.5789895 C146.775958,59.6522526 146.956861,59.7229895 147.151681,59.7912 C147.347765,59.8581474 147.528669,59.9453053 147.698187,60.0488842 C147.86644,60.1524632 148.005596,60.2850947 148.116922,60.4455158 C148.228247,60.6059368 148.28391,60.8156211 148.28391,61.0733053 C148.28391,61.3234105 148.234572,61.5621474 148.135898,61.7920421 C148.037223,62.0206737 147.895536,62.2215158 147.710837,62.3958316 C147.526139,62.5676211 147.303488,62.7078316 147.044151,62.8114105 C146.784813,62.9149895 146.493849,62.9667789 146.171259,62.9667789 C145.824633,62.9667789 145.517223,62.9048842 145.250295,62.7810947 C144.983367,62.6585684 144.767042,62.5006737 144.598789,62.3061474 L144.83409,61.9410947 C144.863187,61.8956211 144.896078,61.8602526 144.935295,61.8337263 C144.975777,61.8097263 145.02638,61.7970947 145.087102,61.7970947 C145.142765,61.7970947 145.200958,61.8210947 145.257886,61.8716211 C145.316078,61.9234105 145.388187,61.9777263 145.472946,62.0408842 C145.560235,62.1040421 145.667765,62.1596211 145.798066,62.2101474 C145.929633,62.2594105 146.09409,62.2859368 146.2965,62.2859368 C146.469813,62.2859368 146.629211,62.2581474 146.770898,62.2050947 C146.912584,62.1507789 147.032765,62.0800421 147.13144,61.9903579 C147.230114,61.9006737 147.303488,61.7958316 147.35662,61.6758316 C147.408488,61.5558316 147.435054,61.4282526 147.435054,61.2918316 C147.435054,61.1099368 147.378127,60.9659368 147.268066,60.8585684 C147.156741,60.7512 147.017584,60.6615158 146.849331,60.5895158 C146.679813,60.5187789 146.500175,60.4518316 146.305355,60.3886737 C146.113066,60.3267789 145.932163,60.2459368 145.76391,60.1474105 C145.595657,60.0488842 145.4565,59.9213053 145.345175,59.7646737 C145.233849,59.6067789 145.178187,59.3970947 145.178187,59.1356211 C145.178187,58.9069895 145.223729,58.6859368 145.314813,58.4737263 C145.405898,58.2615158 145.537464,58.0720421 145.710777,57.9078316 C145.88156,57.7423579 146.090295,57.6122526 146.335717,57.5137263 C146.581139,57.4152 146.858187,57.3659368 147.165596,57.3659368 C147.491982,57.3659368 147.777886,57.4202526 148.028367,57.5288842 C148.277584,57.6387789 148.49138,57.7865684 148.671018,57.9722526 L148.428127,58.3158316 Z" id="Fill-89"></path>
                <polygon id="Fill-91" points="149.196777 62.88 150.158223 54.9789474 151.099428 54.9789474 150.136717 62.88"></polygon>
                <path d="M157.234337,58.3158316 C157.205241,58.3587789 157.176145,58.3903579 157.148313,58.4093053 C157.119217,58.4295158 157.083795,58.4383579 157.040783,58.4383579 C156.990181,58.4383579 156.935783,58.4194105 156.876325,58.3802526 C156.816867,58.3410947 156.744759,58.2968842 156.661265,58.2488842 C156.576506,58.1996211 156.474036,58.1554105 156.35259,58.1137263 C156.231145,58.0733053 156.084398,58.0530947 155.912349,58.0530947 C155.750422,58.0530947 155.603675,58.0745684 155.470843,58.1200421 C155.339277,58.1642526 155.224157,58.2261474 155.128012,58.3044632 C155.030602,58.3840421 154.955964,58.4749895 154.904096,58.5810947 C154.852229,58.6859368 154.826928,58.7983579 154.826928,58.9170947 C154.826928,59.0838316 154.88259,59.2189895 154.993916,59.3187789 C155.103976,59.4198316 155.244398,59.5057263 155.412651,59.5789895 C155.579639,59.6522526 155.761807,59.7229895 155.956627,59.7899368 C156.152711,59.8581474 156.33488,59.9453053 156.503133,60.0488842 C156.671386,60.1524632 156.810542,60.2850947 156.921867,60.4455158 C157.033193,60.6059368 157.088855,60.8156211 157.088855,61.0733053 C157.088855,61.3234105 157.039518,61.5621474 156.940843,61.7920421 C156.842169,62.0206737 156.700482,62.2215158 156.517048,62.3945684 C156.332349,62.5676211 156.109699,62.7078316 155.849096,62.8114105 C155.589759,62.9149895 155.30006,62.9667789 154.97747,62.9667789 C154.629578,62.9667789 154.322169,62.9048842 154.055241,62.7810947 C153.788313,62.6585684 153.570723,62.5006737 153.403735,62.3061474 L153.639036,61.9410947 C153.668133,61.8956211 153.702289,61.8602526 153.741506,61.8337263 C153.781988,61.8097263 153.831325,61.7970947 153.892048,61.7970947 C153.948976,61.7970947 154.005904,61.8210947 154.064096,61.8716211 C154.121024,61.9221474 154.193133,61.9777263 154.279157,62.0408842 C154.363916,62.1040421 154.472711,62.1596211 154.604277,62.2101474 C154.733313,62.2594105 154.900301,62.2859368 155.100181,62.2859368 C155.276024,62.2859368 155.434157,62.2581474 155.575843,62.2050947 C155.71753,62.1507789 155.837711,62.0787789 155.936386,61.9903579 C156.03506,61.9006737 156.109699,61.7958316 156.161566,61.6758316 C156.213434,61.5558316 156.24,61.4282526 156.24,61.2918316 C156.24,61.1099368 156.184337,60.9659368 156.073012,60.8585684 C155.961687,60.7512 155.82253,60.6615158 155.654277,60.5895158 C155.486024,60.5187789 155.30512,60.4518316 155.111566,60.3886737 C154.918012,60.3267789 154.735843,60.2459368 154.568855,60.1474105 C154.400602,60.0488842 154.260181,59.9213053 154.15012,59.7634105 C154.038795,59.6067789 153.984398,59.3970947 153.984398,59.1356211 C153.984398,58.9069895 154.028675,58.6859368 154.119759,58.4737263 C154.210843,58.2615158 154.343675,58.0720421 154.515723,57.9078316 C154.686506,57.7423579 154.895241,57.6122526 155.140663,57.5137263 C155.386084,57.4152 155.663133,57.3659368 155.970542,57.3659368 C156.296928,57.3659368 156.584096,57.4202526 156.833313,57.5288842 C157.08253,57.6387789 157.296325,57.7865684 157.474699,57.9722526 L157.234337,58.3158316 Z" id="Fill-93"></path>
                <path d="M157.96453,57.4461474 L158.678024,57.4461474 C158.750133,57.4461474 158.808325,57.4650947 158.853867,57.5004632 C158.898145,57.5358316 158.924711,57.5838316 158.932301,57.6444632 L159.430735,61.1421474 C159.449711,61.2672 159.459831,61.3884632 159.461096,61.5046737 C159.463627,61.6208842 159.466157,61.7358316 159.468687,61.8495158 C159.511699,61.7358316 159.555976,61.6208842 159.600253,61.5046737 C159.64453,61.3884632 159.692602,61.2672 159.74194,61.1421474 L161.230916,57.6229895 C161.252422,57.5699368 161.287843,57.5244632 161.335916,57.4890947 C161.383988,57.4537263 161.438386,57.4360421 161.499108,57.4360421 L161.896337,57.4360421 C161.968446,57.4360421 162.024108,57.4537263 162.063325,57.4890947 C162.102542,57.5244632 162.126578,57.5699368 162.132904,57.6229895 L162.740133,61.1421474 C162.761639,61.2672 162.779349,61.3897263 162.790735,61.5072 C162.803386,61.6259368 162.816036,61.7434105 162.827422,61.8608842 C162.861578,61.7472 162.897,61.6309895 162.931157,61.5097263 C162.965313,61.3897263 163.00706,61.2672 163.056398,61.1421474 L164.432783,57.6444632 C164.454289,57.5876211 164.489711,57.5396211 164.540313,57.5029895 C164.589651,57.4650947 164.647843,57.4461474 164.712361,57.4461474 L165.399289,57.4461474 L163.115855,62.8802526 L162.390976,62.8802526 C162.310012,62.8802526 162.25688,62.8196211 162.235373,62.6983579 L161.575012,59.0124632 C161.564892,58.9556211 161.554771,58.8975158 161.547181,58.8381474 C161.540855,58.7800421 161.533265,58.7219368 161.525675,58.6638316 C161.509229,58.7244632 161.490253,58.7838316 161.472542,58.8406737 C161.454831,58.8987789 161.433325,58.9568842 161.408024,59.0187789 L159.834289,62.6983579 C159.783687,62.8196211 159.712843,62.8802526 159.619229,62.8802526 L158.920916,62.8802526 L157.96453,57.4461474 Z" id="Fill-95"></path>
                <path d="M167.559886,62.2101474 C167.820488,62.2101474 168.059584,62.1381474 168.27338,61.9954105 C168.48844,61.8526737 168.671873,61.6619368 168.822416,61.4244632 C168.972958,61.1857263 169.089343,60.9116211 169.170307,60.6008842 C169.253801,60.2888842 169.295548,59.9642526 169.295548,59.6244632 C169.295548,59.1242526 169.196873,58.7465684 168.999524,58.4926737 C168.802175,58.2387789 168.517536,58.1112 168.145608,58.1112 C167.879946,58.1112 167.640849,58.1832 167.428319,58.3234105 C167.215789,58.4648842 167.03362,58.6543579 166.883078,58.8930947 C166.732536,59.1305684 166.616151,59.4046737 166.532657,59.7154105 C166.451693,60.0261474 166.409946,60.3520421 166.409946,60.6918316 C166.409946,61.1920421 166.507355,61.5709895 166.702175,61.8261474 C166.898259,62.0813053 167.182898,62.2101474 167.559886,62.2101474 M167.473861,62.9554105 C167.176572,62.9554105 166.903319,62.9048842 166.656633,62.8025684 C166.409946,62.7015158 166.197416,62.5524632 166.017777,62.3604632 C165.839404,62.1672 165.697717,61.9309895 165.597777,61.6518316 C165.497837,61.3739368 165.4485,61.0543579 165.4485,60.6968842 C165.4485,60.2396211 165.520608,59.8088842 165.66356,59.4046737 C165.805247,59.0004632 166.002596,58.6467789 166.251813,58.3423579 C166.499765,58.0379368 166.794524,57.7992 167.132295,57.6236211 C167.471331,57.4480421 167.836934,57.3608842 168.230367,57.3608842 C168.528922,57.3608842 168.799645,57.4114105 169.047596,57.5137263 C169.295548,57.6147789 169.508078,57.7625684 169.687717,57.9558316 C169.86609,58.1490947 170.006512,58.3865684 170.106452,58.6669895 C170.206392,58.9474105 170.256994,59.2644632 170.256994,59.6194105 C170.256994,60.0728842 170.184886,60.5023579 170.041934,60.9065684 C169.898982,61.3107789 169.701633,61.6644632 169.453681,61.9688842 C169.204464,62.2733053 168.909705,62.5133053 168.569404,62.6901474 C168.229102,62.8682526 167.8635,62.9554105 167.473861,62.9554105" id="Fill-97"></path>
                <path d="M172.990789,55.7407579 C172.990789,55.8342316 172.971813,55.9201263 172.935127,56.0009684 C172.897175,56.0818105 172.847837,56.1525474 172.784584,56.2144421 C172.721331,56.2776 172.649223,56.3268632 172.569524,56.3622316 C172.489825,56.3988632 172.407596,56.4165474 172.325367,56.4165474 C172.239343,56.4165474 172.15838,56.3988632 172.079946,56.3622316 C172.004042,56.3268632 171.935729,56.2776 171.876271,56.2144421 C171.816813,56.1525474 171.770006,56.0818105 171.734584,56.0009684 C171.699163,55.9201263 171.680187,55.8342316 171.680187,55.7407579 C171.680187,55.6472842 171.699163,55.5601263 171.734584,55.4780211 C171.770006,55.3959158 171.818078,55.3226526 171.878801,55.2607579 C171.939524,55.1976 172.009102,55.1483368 172.085006,55.1091789 C172.16344,55.0725474 172.244404,55.0548632 172.330428,55.0548632 C172.416452,55.0548632 172.498681,55.0712842 172.57838,55.1079158 C172.655548,55.1432842 172.726392,55.1925474 172.789645,55.2544421 C172.852898,55.3176 172.902235,55.3908632 172.937657,55.4754947 C172.973078,55.5588632 172.990789,55.6472842 172.990789,55.7407579 Z M172.651753,57.4460211 L171.933199,63.2818105 C171.904102,63.5003368 171.849705,63.7037053 171.768741,63.8919158 C171.689042,64.0788632 171.580247,64.2430737 171.44362,64.3820211 C171.308259,64.5222316 171.146331,64.6321263 170.957837,64.7129684 C170.769343,64.7938105 170.555548,64.8342316 170.316452,64.8342316 C170.189946,64.8342316 170.082416,64.8241263 169.993861,64.8064421 C169.904042,64.7887579 169.815488,64.7622316 169.730729,64.7256 L169.826873,64.2114947 C169.844584,64.1634947 169.86609,64.1357053 169.891392,64.1218105 C169.916693,64.1091789 169.954645,64.1041263 170.003982,64.1041263 L170.087476,64.1041263 L170.192476,64.1041263 C170.445488,64.1041263 170.636512,64.0384421 170.757958,63.9083368 C170.881934,63.7782316 170.961633,63.5685474 170.998319,63.2780211 L171.711813,57.4460211 L172.651753,57.4460211 Z" id="Fill-99"></path>
                <path d="M176.193036,58.0580211 C175.96659,58.0580211 175.75912,58.1047579 175.569361,58.1969684 C175.379602,58.2904421 175.212614,58.4180211 175.064602,58.5809684 C174.917855,58.7439158 174.792614,58.9346526 174.68888,59.1544421 C174.585145,59.3742316 174.504181,59.6117053 174.447253,59.8656 C174.998819,59.7973895 175.440325,59.7203368 175.774301,59.6331789 C176.108277,59.5447579 176.363819,59.4500211 176.542193,59.3477053 C176.721831,59.2453895 176.839482,59.1367579 176.897675,59.0180211 C176.954602,58.9005474 176.982434,58.7767579 176.982434,58.6479158 C176.982434,58.5847579 176.968518,58.5165474 176.940687,58.4470737 C176.910325,58.3776 176.864783,58.3144421 176.802795,58.2563368 C176.740807,58.1994947 176.658578,58.1514947 176.558639,58.1136 C176.458699,58.0769684 176.335988,58.0580211 176.193036,58.0580211 M177.837614,58.6100211 C177.837614,58.8462316 177.789542,59.0634947 177.692133,59.2630737 C177.594723,59.4601263 177.41888,59.6394947 177.160807,59.7986526 C176.902735,59.9578105 176.547253,60.0967579 176.096892,60.2154947 C175.645265,60.3329684 175.064602,60.4264421 174.356169,60.4997053 C174.352373,60.5376 174.349843,60.5767579 174.349843,60.6133895 L174.349843,60.7296 C174.349843,61.2096 174.454843,61.5746526 174.664843,61.8260211 C174.873578,62.0799158 175.189843,62.2049684 175.612373,62.2049684 C175.784422,62.2049684 175.938759,62.1872842 176.07159,62.1506526 C176.206952,62.1152842 176.325867,62.0723368 176.432133,62.0205474 C176.537133,61.9674947 176.632012,61.9106526 176.711711,61.8474947 C176.792675,61.7856 176.866048,61.7274947 176.934361,61.6757053 C177.002675,61.6239158 177.064663,61.5809684 177.12159,61.5456 C177.179783,61.5089684 177.236711,61.4912842 177.293639,61.4912842 C177.359422,61.4912842 177.41888,61.5216 177.472012,61.5822316 L177.707313,61.8765474 C177.52641,62.0672842 177.346771,62.2289684 177.173458,62.3628632 C177.000145,62.4980211 176.821771,62.6091789 176.639602,62.6988632 C176.456169,62.7872842 176.26641,62.8529684 176.06653,62.8946526 C175.867916,62.9350737 175.65412,62.9552842 175.425145,62.9552842 C175.112675,62.9552842 174.834361,62.9034947 174.58641,62.7999158 C174.339723,62.6963368 174.129723,62.5498105 173.957675,62.3565474 C173.786892,62.1658105 173.652795,61.9346526 173.560446,61.6630737 C173.468096,61.3914947 173.421289,61.0870737 173.421289,60.7510737 C173.421289,60.4719158 173.450386,60.1940211 173.509843,59.9173895 C173.569301,59.6394947 173.65406,59.3754947 173.767916,59.1253895 C173.880506,58.8752842 174.018398,58.6428632 174.180325,58.4281263 C174.343518,58.2133895 174.530747,58.0289684 174.740747,57.8736 C174.949482,57.7169684 175.179723,57.5944421 175.432735,57.5060211 C175.685747,57.4163368 175.95647,57.3721263 176.247434,57.3721263 C176.523217,57.3721263 176.761048,57.4100211 176.960928,57.4896 C177.162072,57.5679158 177.32653,57.6677053 177.455566,57.7902316 C177.584602,57.9114947 177.680747,58.0453895 177.744,58.1919158 C177.804723,58.3384421 177.837614,58.4786526 177.837614,58.6100211" id="Fill-101"></path>
                <path d="M183.617801,58.1333053 C183.445753,58.1333053 183.27244,58.1863579 183.094066,58.2937263 C182.915693,58.4010947 182.746175,58.5514105 182.581717,58.7446737 C182.415994,58.9379368 182.262922,59.1665684 182.121235,59.4318316 C181.979548,59.6958316 181.856837,59.9838316 181.753102,60.2945684 L181.582319,61.6789895 C181.717681,61.8760421 181.880873,62.0137263 182.073163,62.0958316 C182.265452,62.1754105 182.459006,62.2145684 182.656355,62.2145684 C182.842319,62.2145684 183.016898,62.1766737 183.18262,62.0983579 C183.347078,62.0187789 183.49762,61.9126737 183.634247,61.7787789 C183.769608,61.6436211 183.892319,61.4869895 183.999849,61.3063579 C184.10738,61.1257263 184.197199,60.9324632 184.270572,60.7265684 C184.343946,60.5219368 184.399608,60.3084632 184.438825,60.0886737 C184.479307,59.8688842 184.498283,59.6516211 184.498283,59.4368842 C184.498283,59.0112 184.42238,58.6865684 184.268042,58.4655158 C184.113705,58.2432 183.89738,58.1333053 183.617801,58.1333053 Z M180.280572,64.7206737 L181.16738,57.4410947 L181.645572,57.4410947 C181.860633,57.4410947 181.968163,57.5484632 181.968163,57.7632 L181.877078,58.9215158 C182.01244,58.6853053 182.161717,58.4718316 182.323645,58.2810947 C182.484307,58.0890947 182.65256,57.9248842 182.830934,57.7897263 C183.008042,57.6533053 183.192741,57.5497263 183.386295,57.4764632 C183.581114,57.4032 183.777199,57.3665684 183.977078,57.3665684 C184.438825,57.3665684 184.800633,57.5345684 185.05744,57.8705684 C185.315512,58.2065684 185.443283,58.6979368 185.443283,59.3446737 C185.443283,59.6389895 185.414187,59.9320421 185.352199,60.2250947 C185.291476,60.5194105 185.205452,60.7985684 185.092861,61.0650947 C184.979006,61.3303579 184.843645,61.5804632 184.684247,61.8103579 C184.524849,62.0415158 184.347741,62.2410947 184.152922,62.4116211 C183.958102,62.5808842 183.745572,62.7147789 183.515331,62.8107789 C183.286355,62.9067789 183.045994,62.9547789 182.795512,62.9547789 C182.527319,62.9547789 182.280633,62.9029895 182.060512,62.7968842 C181.837861,62.6920421 181.650633,62.5404632 181.50009,62.3446737 L181.211657,64.7206737 L180.280572,64.7206737 Z" id="Fill-103"></path>
                <path d="M188.16291,55.7407579 C188.16291,55.8342316 188.143934,55.9201263 188.105982,56.0009684 C188.069295,56.0818105 188.018693,56.1525474 187.956705,56.2144421 C187.893452,56.2776 187.821343,56.3268632 187.744175,56.3622316 C187.664476,56.3988632 187.582247,56.4165474 187.496223,56.4165474 C187.413994,56.4165474 187.334295,56.3988632 187.254596,56.3622316 C187.176163,56.3268632 187.106584,56.2776 187.048392,56.2144421 C186.987669,56.1525474 186.940861,56.0818105 186.90544,56.0009684 C186.870018,55.9201263 186.852307,55.8342316 186.852307,55.7407579 C186.852307,55.6472842 186.870018,55.5601263 186.90544,55.4780211 C186.940861,55.3959158 186.988934,55.3226526 187.050922,55.2607579 C187.111645,55.1976 187.181223,55.1483368 187.259657,55.1091789 C187.339355,55.0725474 187.419054,55.0548632 187.502548,55.0548632 C187.587307,55.0548632 187.669536,55.0712842 187.749235,55.1079158 C187.827669,55.1432842 187.898512,55.1925474 187.961765,55.2544421 C188.023753,55.3176 188.07309,55.3908632 188.108512,55.4754947 C188.143934,55.5588632 188.16291,55.6472842 188.16291,55.7407579 Z M187.802367,57.4460211 L187.147066,62.8801263 L186.207127,62.8801263 L186.862428,57.4460211 L187.802367,57.4460211 Z" id="Fill-105"></path>
                <path d="M191.402096,58.0580211 C191.176916,58.0580211 190.969446,58.1047579 190.779687,58.1969684 C190.588663,58.2904421 190.421675,58.4180211 190.273663,58.5809684 C190.126916,58.7439158 190.00294,58.9346526 189.899205,59.1544421 C189.794205,59.3742316 189.713241,59.6117053 189.656313,59.8656 C190.20788,59.7973895 190.649386,59.7203368 190.983361,59.6331789 C191.317337,59.5447579 191.57288,59.4500211 191.751253,59.3477053 C191.930892,59.2453895 192.048542,59.1367579 192.106735,59.0180211 C192.163663,58.9005474 192.192759,58.7767579 192.192759,58.6479158 C192.192759,58.5847579 192.177578,58.5165474 192.149747,58.4470737 C192.120651,58.3776 192.075108,58.3144421 192.011855,58.2563368 C191.949867,58.1994947 191.867639,58.1514947 191.767699,58.1136 C191.667759,58.0769684 191.545048,58.0580211 191.402096,58.0580211 M191.456494,64.0289684 C191.503301,64.0289684 191.532398,64.0504421 191.541253,64.0921263 L191.638663,64.4369684 C191.532398,64.5178105 191.398301,64.5860211 191.238904,64.6378105 C191.079506,64.6896 190.912518,64.7161263 190.741735,64.7161263 C190.469747,64.7161263 190.261012,64.6529684 190.111735,64.5266526 C189.966253,64.4003368 189.89288,64.2348632 189.89288,64.0277053 C189.89288,63.8192842 189.957398,63.6222316 190.088964,63.4403368 C190.219265,63.2571789 190.386253,63.0929684 190.591193,62.9502316 C190.286313,62.9502316 190.01306,62.8971789 189.772699,62.7898105 C189.531072,62.6811789 189.323602,62.5333895 189.154084,62.3451789 C188.984566,62.1544421 188.854265,61.9258105 188.764446,61.6554947 C188.674627,61.3851789 188.630349,61.0832842 188.630349,60.7510737 C188.630349,60.4719158 188.659446,60.1940211 188.718904,59.9173895 C188.778361,59.6394947 188.864386,59.3754947 188.976976,59.1253895 C189.089566,58.8752842 189.227458,58.6428632 189.390651,58.4281263 C189.553843,58.2133895 189.739807,58.0289684 189.949807,57.8736 C190.159807,57.7169684 190.390048,57.5944421 190.641795,57.5060211 C190.894807,57.4163368 191.16553,57.3721263 191.456494,57.3721263 C191.732277,57.3721263 191.970108,57.4100211 192.169988,57.4896 C192.371133,57.5679158 192.53559,57.6677053 192.664627,57.7902316 C192.794928,57.9114947 192.889807,58.0453895 192.95306,58.1919158 C193.015048,58.3384421 193.046675,58.4786526 193.046675,58.6100211 C193.046675,58.8462316 192.998602,59.0634947 192.902458,59.2630737 C192.803783,59.4601263 192.62794,59.6394947 192.369867,59.7986526 C192.111795,59.9578105 191.756313,60.0967579 191.305952,60.2154947 C190.854325,60.3329684 190.273663,60.4264421 189.565229,60.4997053 C189.561434,60.5376 189.560169,60.5767579 189.560169,60.6133895 L189.560169,60.7296 C189.560169,61.2096 189.665169,61.5746526 189.873904,61.8260211 C190.083904,62.0799158 190.398904,62.2049684 190.821434,62.2049684 C190.994747,62.2049684 191.147819,62.1872842 191.281916,62.1506526 C191.416012,62.1152842 191.534928,62.0723368 191.641193,62.0205474 C191.746193,61.9674947 191.841072,61.9106526 191.920771,61.8474947 C192.001735,61.7856 192.075108,61.7274947 192.143422,61.6757053 C192.213,61.6239158 192.273723,61.5809684 192.331916,61.5456 C192.388843,61.5089684 192.445771,61.4912842 192.503964,61.4912842 C192.568482,61.4912842 192.62794,61.5216 192.681072,61.5822316 L192.917639,61.8765474 C192.64059,62.1632842 192.373663,62.3906526 192.111795,62.5561263 C191.849928,62.7216 191.569084,62.8352842 191.269265,62.8971789 C191.193361,62.9388632 191.116193,62.9906526 191.040289,63.0487579 C190.961855,63.1093895 190.892277,63.1750737 190.827759,63.2470737 C190.763241,63.3216 190.710108,63.4024421 190.669627,63.4921263 C190.62788,63.5818105 190.607639,63.6752842 190.607639,63.7763368 C190.607639,63.8900211 190.64306,63.9822316 190.715169,64.0529684 C190.787277,64.1224421 190.879627,64.1578105 190.994747,64.1578105 C191.069386,64.1578105 191.132639,64.1502316 191.184506,64.1376 C191.236373,64.1262316 191.280651,64.1123368 191.317337,64.0959158 C191.352759,64.0794947 191.379325,64.0643368 191.399566,64.0504421 C191.419807,64.0352842 191.437518,64.0289684 191.456494,64.0289684" id="Fill-107"></path>
                <path d="M195.598807,54.9790737 L195.02953,59.6300211 L195.195253,59.6300211 C195.266096,59.6300211 195.325554,59.6199158 195.372361,59.5997053 C195.419169,59.5807579 195.471036,59.5403368 195.527964,59.4797053 L197.328145,57.6392842 C197.385072,57.5824421 197.440735,57.5357053 197.495133,57.5003368 C197.548265,57.4649684 197.619108,57.4460211 197.703867,57.4460211 L198.547663,57.4460211 L196.447663,59.5757053 C196.393265,59.6338105 196.341398,59.6856 196.288265,59.7348632 C196.236398,59.7828632 196.180735,59.8245474 196.120012,59.8599158 C196.17694,59.9028632 196.225012,59.9533895 196.264229,60.0102316 C196.304711,60.0670737 196.343928,60.1302316 196.383145,60.1984421 L198.016337,62.8801263 L197.194048,62.8801263 C197.114349,62.8801263 197.051096,62.8662316 197.003024,62.8384421 C196.954952,62.8093895 196.910675,62.7601263 196.871458,62.6919158 L195.484952,60.4662316 C195.43941,60.3954947 195.393867,60.3474947 195.34959,60.3209684 C195.304048,60.2969684 195.23194,60.2843368 195.130735,60.2843368 L194.948566,60.2843368 L194.631036,62.8801263 L193.686036,62.8801263 L194.658867,54.9790737 L195.598807,54.9790737 Z" id="Fill-109"></path>
                <path d="M198.799789,62.88 L199.451295,57.4408421 L199.929488,57.4408421 C200.143283,57.4408421 200.250813,57.5482105 200.250813,57.7629474 L200.169849,58.8151579 C200.459548,58.3351579 200.787199,57.9738947 201.150271,57.7301053 C201.514608,57.4875789 201.890331,57.3663158 202.281235,57.3663158 C202.686054,57.3663158 202.999789,57.5014737 203.223705,57.7743158 C203.448886,58.0458947 203.560211,58.4425263 203.560211,58.9642105 C203.560211,59.0362105 203.558946,59.1094737 203.555151,59.1852632 C203.551355,59.2597895 203.543765,59.3381053 203.533645,59.4202105 L203.12503,62.88 L202.168645,62.88 L202.577259,59.4202105 C202.583584,59.3494737 202.591175,59.28 202.596235,59.2143158 C202.601295,59.1473684 202.603825,59.0842105 202.603825,59.0235789 C202.603825,58.7305263 202.549428,58.5132632 202.440633,58.3717895 C202.330572,58.2303158 202.159789,58.1595789 201.927018,58.1595789 C201.75497,58.1595789 201.580392,58.2063158 201.403283,58.2997895 C201.226175,58.3932632 201.054127,58.5233684 200.889669,58.6938947 C200.725211,58.8631579 200.572139,59.0690526 200.430452,59.3103158 C200.29003,59.5515789 200.168584,59.8218947 200.068645,60.1174737 L199.756175,62.88 L198.799789,62.88 Z" id="Fill-111"></path>
                <path d="M206.477819,62.2101474 C206.738422,62.2101474 206.977518,62.1381474 207.191313,61.9954105 C207.406373,61.8526737 207.589807,61.6619368 207.740349,61.4244632 C207.889627,61.1857263 208.007277,60.9116211 208.088241,60.6008842 C208.171735,60.2888842 208.212217,59.9642526 208.212217,59.6244632 C208.212217,59.1242526 208.113542,58.7465684 207.917458,58.4926737 C207.718843,58.2387789 207.43547,58.1112 207.063542,58.1112 C206.79788,58.1112 206.558783,58.1832 206.346253,58.3234105 C206.133723,58.4648842 205.951554,58.6543579 205.801012,58.8930947 C205.65047,59.1305684 205.534084,59.4046737 205.45059,59.7154105 C205.368361,60.0261474 205.32788,60.3520421 205.32788,60.6918316 C205.32788,61.1920421 205.425289,61.5709895 205.620108,61.8261474 C205.816193,62.0813053 206.100831,62.2101474 206.477819,62.2101474 M206.391795,62.9554105 C206.093241,62.9554105 205.821253,62.9048842 205.574566,62.8025684 C205.32788,62.7015158 205.114084,62.5524632 204.935711,62.3604632 C204.757337,62.1672 204.615651,61.9309895 204.515711,61.6518316 C204.415771,61.3739368 204.365169,61.0543579 204.365169,60.6968842 C204.365169,60.2396211 204.438542,59.8088842 204.580229,59.4046737 C204.723181,59.0004632 204.92053,58.6467789 205.169747,58.3423579 C205.417699,58.0379368 205.712458,57.7992 206.050229,57.6236211 C206.389265,57.4480421 206.754867,57.3608842 207.148301,57.3608842 C207.446855,57.3608842 207.717578,57.4114105 207.96553,57.5137263 C208.212217,57.6147789 208.426012,57.7625684 208.605651,57.9558316 C208.784024,58.1490947 208.924446,58.3865684 209.024386,58.6669895 C209.124325,58.9474105 209.174928,59.2644632 209.174928,59.6194105 C209.174928,60.0728842 209.102819,60.5023579 208.959867,60.9065684 C208.816916,61.3107789 208.619566,61.6644632 208.371614,61.9688842 C208.122398,62.2733053 207.826373,62.5133053 207.487337,62.6901474 C207.147036,62.8682526 206.781434,62.9554105 206.391795,62.9554105" id="Fill-113"></path>
                <path d="M81.1479217,27.5603368 C81.1833434,27.5603368 81.2187651,27.5426526 81.2554518,27.5072842 C81.2554518,27.5792842 81.2465964,27.6133895 81.2276205,27.6133895 C81.2099096,27.6133895 81.1833434,27.5969684 81.1479217,27.5603368 M73.4652108,42.5818105 C73.4652108,43.6896 73.6802711,44.6546526 74.1103916,45.4782316 C75.6487048,44.7973895 77.5121386,43.3851789 79.6981627,41.2403368 C78.6582831,39.5237053 78.005512,38.1733895 77.7360542,37.1893895 C77.4678614,36.2066526 77.2793675,34.9093895 77.1718373,33.3001263 C74.7011747,36.8407579 73.4652108,39.9342316 73.4652108,42.5818105 M80.7721988,42.7952842 C77.6196687,45.2268632 75.3096687,46.4432842 73.8409337,46.4432842 C73.0528012,46.4432842 72.4708735,46.0592842 72.0951506,45.2900211 C71.7194277,44.5207579 71.5309337,43.6896 71.5309337,42.7952842 C71.5309337,41.0786526 72.2558133,38.5043368 73.7068373,35.0710737 C75.1578614,31.6378105 76.5443675,29.9211789 77.8701506,29.9211789 C78.550753,29.9211789 79.1326807,31.2626526 79.6171988,33.9443368 C80.1004518,36.6260211 80.5925602,38.5763368 81.0947892,39.7914947 C83.5287651,37.2171789 87.0570181,32.9249684 91.6782831,26.9173895 C97.4798494,19.2992842 101.330693,15.1333895 103.229548,14.4171789 C103.873464,14.1670737 104.536355,14.0420211 105.216958,14.0420211 C105.896295,14.0420211 106.460512,14.1860211 106.908343,14.4714947 C107.356175,14.7582316 107.581355,15.1144421 107.581355,15.5439158 C107.581355,16.1527579 107.060151,16.5089684 106.022801,16.6163368 C104.767861,17.2971789 102.834849,18.9418105 100.21997,21.5527579 C97.6050904,24.0917053 95.5101506,26.4702316 93.9338855,28.6870737 C90.1020181,34.0163368 86.1613554,38.3616 82.1144277,41.7228632 C84.1208133,44.6912842 87.2720783,46.1754947 91.570753,46.1754947 C92.0350301,46.1754947 92.7346084,46.1388632 93.6656928,46.0681263 C103.622982,45.1371789 110.678223,40.8285474 114.833946,33.1397053 C116.516476,30.0639158 117.359006,27.0247579 117.359006,24.0197053 C117.359006,21.0159158 116.265994,18.3165474 114.081235,15.9203368 C112.326596,13.9536 110.418886,12.7371789 108.359367,12.2710737 C106.299849,11.8074947 104.196054,11.5738105 102.046717,11.5738105 C96.5310542,11.5738105 91.444247,12.8445474 86.7888253,15.3834947 C81.8816566,18.0651789 79.4287048,21.0689684 79.4287048,24.3961263 C79.4287048,25.2904421 79.6703313,26.0230737 80.1535843,26.5952842 C80.6368373,27.1674947 80.9682831,27.4896 81.1479217,27.5603368 L80.8253313,27.5603368 C79.8929819,27.3822316 79.0694277,26.9173895 78.3546687,26.1658105 C77.5652711,25.2361263 77.1718373,24.2533895 77.1718373,23.2150737 C77.1718373,19.6390737 79.4198494,16.5632842 83.9146084,13.9889684 C88.4093675,11.4133895 93.6834036,10.1262316 99.7367169,10.1262316 C102.52997,10.1262316 105.395331,10.4483368 108.332801,11.0912842 C111.269006,11.7354947 113.938283,13.2727579 116.336837,15.7056 C119.095934,18.5666526 120.474849,21.8028632 120.474849,25.4142316 C120.474849,28.0971789 119.686717,30.8685474 118.110452,33.7296 C115.388042,38.6647579 111.323404,42.2773895 105.915271,44.5662316 C101.581175,46.3902316 96.9067771,47.3009684 91.8933434,47.3009684 C86.8773795,47.3009684 83.170753,45.7990737 80.7721988,42.7952842" id="Fill-115"></path>
                <path d="M122.03138,41.2933895 C122.03138,42.5818105 122.479211,43.2247579 123.374873,43.2247579 C125.452102,43.2247579 128.280777,40.9536 131.863428,36.4112842 L137.557464,28.5797053 C137.27156,28.0794947 136.807283,27.8281263 136.162102,27.8281263 C133.976078,27.8281263 131.075295,29.5182316 127.458488,32.8984421 C123.840416,36.2773895 122.03138,39.0765474 122.03138,41.2933895 M138.095114,28.0971789 L138.847825,27.9354947 C139.241259,27.9354947 139.616982,28.0971789 139.976259,28.4192842 C140.334271,28.7401263 140.512645,28.9914947 140.512645,29.1696 C140.512645,29.3489684 139.401922,31.0744421 137.183006,34.3460211 C134.96156,37.6188632 133.852102,39.8988632 133.852102,41.1860211 C133.852102,41.2933895 133.868548,41.4007579 133.905235,41.5081263 C134.083608,42.3304421 134.478307,42.7409684 135.086801,42.7409684 C136.94897,42.7409684 140.351982,39.6664421 145.295837,33.5148632 C145.403367,33.3721263 145.527343,33.3001263 145.67156,33.3001263 C145.814512,33.3001263 145.885355,33.4340211 145.885355,33.7030737 C145.885355,33.9708632 145.724693,34.3194947 145.403367,34.7489684 C140.817524,40.8639158 137.324693,43.9220211 134.924873,43.9220211 C134.603548,43.9220211 134.298669,43.8689684 134.012765,43.7616 C132.4365,43.1540211 131.649633,41.9729684 131.649633,40.2197053 C131.649633,39.6121263 131.719211,39.0045474 131.863428,38.3969684 L128.532524,41.6154947 C126.419873,43.4748632 124.887886,44.4045474 123.93909,44.4045474 C122.990295,44.4045474 122.085777,44.1013895 121.225536,43.4925474 C120.260295,42.7776 119.775777,41.8302316 119.775777,40.6491789 C119.775777,38.0394947 121.602524,34.9194947 125.256018,31.2891789 C128.909512,27.6601263 132.256861,25.8437053 135.301861,25.8437053 C136.484693,25.8437053 137.27156,26.2554947 137.664994,27.0778105 C137.772524,27.3645474 137.862343,27.6058105 137.934452,27.8016 C138.00656,27.9986526 138.059693,28.0971789 138.095114,28.0971789" id="Fill-117"></path>
                <path d="M168.020747,43.4929263 C165.584241,43.4929263 164.367253,42.3661895 164.367253,40.1127158 C164.367253,38.8255579 164.93906,37.0647158 166.08647,34.8301895 C167.232614,32.5944 168.431892,30.7072421 169.685566,29.1699789 C167.465386,30.2424 164.903639,32.1826105 162.002855,34.9906105 C159.102072,37.7986105 157.079241,40.7392421 155.931831,43.8150316 C155.752193,44.1017684 155.448578,44.2445053 155.019723,44.2445053 C154.159482,44.2445053 153.729361,43.7607158 153.729361,42.7956632 C154.087373,40.8289263 154.893217,38.5754526 156.146892,36.0365053 C156.54159,35.2141895 157.705446,32.8179789 159.639723,28.8478737 C156.845205,30.6718737 154.471952,32.6297684 152.519964,34.7228211 C150.567976,36.8133474 148.75894,38.9152421 147.09412,41.0247158 C145.429301,43.1354526 144.488096,44.1901895 144.274301,44.1901895 C143.807494,44.1901895 143.405205,43.9754526 143.064904,43.5459789 C142.724602,43.1177684 142.555084,42.6882947 142.555084,42.2588211 C142.555084,41.6158737 143.484904,39.2550316 145.348337,35.1775579 L142.124964,38.5577684 C141.336831,39.3447158 140.844723,39.7375579 140.647373,39.7375579 C140.451289,39.7375579 140.351349,39.6226105 140.351349,39.3889263 C140.351349,39.1565053 140.495566,38.8975579 140.78147,38.6108211 C142.108518,37.2882947 143.287554,35.9657684 144.327434,34.6419789 C145.366048,33.3181895 147.085265,30.9586105 149.485084,27.5607158 C149.878518,27.0238737 150.43388,26.7560842 151.151169,26.7560842 C151.865928,26.7560842 152.225205,27.0958737 152.225205,27.7754526 C152.225205,28.0255579 151.27641,29.7687158 149.377554,33.0049263 C147.479964,36.2424 146.423639,38.2722947 146.208578,39.0946105 C147.676048,37.4853474 149.878518,35.3215579 152.815988,32.6032421 C157.222193,28.5257684 160.122976,26.4882947 161.519602,26.4882947 C161.949723,26.4882947 162.343157,26.6133474 162.701169,26.8634526 C163.059181,27.1135579 163.238819,27.3914526 163.238819,27.6946105 C163.238819,27.9990316 162.540506,29.3493474 161.142614,31.7442947 C159.78141,34.2125053 159.029964,35.6790316 158.887012,36.1438737 C162.863096,32.8179789 164.850506,31.1367158 164.850506,31.1013474 C168.216831,28.4916632 170.634361,27.1842947 172.104361,27.1842947 C172.533217,27.1842947 172.936771,27.3194526 173.312494,27.5872421 C173.688217,27.8562947 173.876711,28.1695579 173.876711,28.5257684 C173.876711,28.5977684 172.712855,30.1085053 170.38388,33.0592421 C168.054904,36.0099789 166.748096,38.4327158 166.463458,40.3274526 C166.390084,40.9716632 166.51659,41.4541895 166.837916,41.7762947 C167.160506,42.0984 167.742434,42.2588211 168.583699,42.2588211 C169.424964,42.2588211 170.660928,41.6777684 172.29159,40.5156632 C173.920988,39.3535579 175.578217,37.7885053 177.262012,35.8217684 C177.904663,35.1068211 178.343639,34.7493474 178.577675,34.7493474 C178.809181,34.7493474 178.926831,34.8390316 178.926831,35.0171368 C178.926831,35.2672421 178.764904,35.5527158 178.442313,35.8760842 C176.68894,37.9855579 174.797675,39.7830316 172.774843,41.2672421 C170.750747,42.7514526 169.165627,43.4929263 168.020747,43.4929263" id="Fill-119"></path>
                <path d="M178.067096,41.2933895 C178.067096,42.5818105 178.514928,43.2247579 179.41059,43.2247579 C181.486554,43.2247579 184.316494,40.9536 187.89788,36.4112842 L193.593181,28.5797053 C193.306012,28.0794947 192.841735,27.8281263 192.196554,27.8281263 C190.01053,27.8281263 187.109747,29.5182316 183.49294,32.8984421 C179.876133,36.2773895 178.067096,39.0765474 178.067096,41.2933895 M194.130831,28.0971789 L194.882277,27.9354947 C195.276976,27.9354947 195.652699,28.0971789 196.011976,28.4192842 C196.368723,28.7401263 196.548361,28.9914947 196.548361,29.1696 C196.548361,29.3489684 195.437639,31.0744421 193.218723,34.3460211 C190.996012,37.6188632 189.886554,39.8988632 189.886554,41.1860211 C189.886554,41.2933895 189.904265,41.4007579 189.940952,41.5081263 C190.11806,42.3304421 190.512759,42.7409684 191.121253,42.7409684 C192.984687,42.7409684 196.386434,39.6664421 201.330289,33.5148632 C201.437819,33.3721263 201.561795,33.3001263 201.706012,33.3001263 C201.848964,33.3001263 201.919807,33.4340211 201.919807,33.7030737 C201.919807,33.9708632 201.76041,34.3194947 201.437819,34.7489684 C196.853241,40.8639158 193.36041,43.9220211 190.96059,43.9220211 C190.639265,43.9220211 190.33312,43.8689684 190.048482,43.7616 C188.470952,43.1540211 187.684084,41.9729684 187.684084,40.2197053 C187.684084,39.6121263 187.754928,39.0045474 187.89788,38.3969684 L184.568241,41.6154947 C182.454325,43.4748632 180.922337,44.4045474 179.974807,44.4045474 C179.024747,44.4045474 178.120229,44.1013895 177.261253,43.4925474 C176.294747,42.7776 175.810229,41.8302316 175.810229,40.6491789 C175.810229,38.0394947 177.636976,34.9194947 181.29047,31.2891789 C184.943964,27.6601263 188.292578,25.8437053 191.336313,25.8437053 C192.519145,25.8437053 193.306012,26.2554947 193.700711,27.0778105 C193.808241,27.3645474 193.89806,27.6058105 193.968904,27.8016 C194.041012,27.9986526 194.094145,28.0971789 194.130831,28.0971789" id="Fill-121"></path>
            </g>
        </g>
    </g>
</svg>