<svg width="209" height="120" xmlns="http://www.w3.org/2000/svg"><g transform="translate(-1)" fill="#201F1F" fill-rule="evenodd"><path d="M33.158 54.1c-3.391-1.223-21.703-7.977-28.388-17.158a17.356 17.356 0 0 1-2.428-4.661C.881 27.928.553 20.951 4.582 16.802c3.91-4.027 10.11-3.521 12.14-3.357 12.054.983 21.11 12.072 27.08 19.394.974 1.194 2.244 2.837 4.483 5.41 4.49 5.155 8.289 8.78 10.46 10.816C75.033 64.34 83.178 71.98 92.923 73.867c3.915.758 8.785 1.047 8.778 1.119-.009.078-4.268.36-9.152-.932-7.692 0-19.845-11.293-19.754-11.394.037-.042 2.075 1.74 2.057 1.76-.01.016-.958-.691-4.528-3.421-.032-.018-9.731-5.66-18.303-13.799-3.406-3.235-3.215-3.616-8.03-8.205-2.178-2.076-4.58-3.97-9.152-8.02-1.708-1.512-3.6-3.196-6.537-4.85-2.32-1.304-3.889-2.186-6.163-2.422-.778-.08-5.908-.609-8.779 2.983-1.816 2.274-1.72 4.987-1.68 5.782.179 3.584 2.371 6.192 4.481 8.391 2.962 3.086 8.32 8.036 16.996 13.24"/><path d="M20.724 23.291c.574 0 1.07.035 1.45.075 2.345.243 3.916 1.128 6.295 2.465 2.94 1.655 4.856 3.351 6.546 4.848l.05.043c2.009 1.779 3.63 3.17 4.933 4.287 1.678 1.437 3.001 2.572 4.227 3.74 2.611 2.488 3.771 3.76 4.795 4.884a55.284 55.284 0 0 0 3.236 3.32c8.407 7.984 17.84 13.522 18.24 13.754l.036.024c.853.653 1.548 1.185 2.116 1.616a.522.522 0 0 1 .047-.02c-4.047-3.51-8.645-7.825-14.181-13.016-2.652-2.487-6.24-5.967-10.484-10.84a139.283 139.283 0 0 1-3.789-4.55c-.253-.314-.483-.602-.7-.867-5.941-7.287-14.918-18.3-26.846-19.27-1.995-.164-8.069-.658-11.868 3.254-1.757 1.808-2.823 4.387-3.085 7.457-.213 2.498.122 5.296.922 7.679a17.125 17.125 0 0 0 2.38 4.57c5.28 7.25 18.058 13.062 24.995 15.81-5.476-3.544-10.216-7.39-14.121-11.461-2.116-2.206-4.39-4.872-4.577-8.609-.148-2.966.873-4.905 1.755-6.009 2.139-2.677 5.44-3.184 7.628-3.184m79.49 52.12c-1.767 0-4.693-.226-7.708-1.019-6.28-.035-15.597-7.487-18.85-10.43-.748-.564-1.931-1.465-3.52-2.68-.49-.288-10.014-5.924-18.347-13.837a56.471 56.471 0 0 1-3.272-3.356c-1.016-1.114-2.167-2.379-4.76-4.85-1.213-1.156-2.531-2.286-4.2-3.716-1.306-1.12-2.929-2.512-4.943-4.294l-.049-.043c-1.665-1.474-3.551-3.146-6.429-4.764-2.304-1.297-3.827-2.153-6.032-2.383-1.72-.178-5.987-.26-8.478 2.858-.809 1.013-1.745 2.798-1.607 5.553.175 3.504 2.357 6.057 4.389 8.175 4.547 4.74 10.242 9.176 16.925 13.185l-.29.608c-5.08-1.832-22.15-8.49-28.547-17.276a17.811 17.811 0 0 1-2.476-4.754c-1.666-4.97-1.595-11.79 2.32-15.82 4.022-4.144 10.336-3.629 12.41-3.46 12.216.995 21.304 12.142 27.317 19.519.217.267.449.555.703.872.907 1.128 2.036 2.532 3.773 4.527a143.355 143.355 0 0 0 10.435 10.79C75.198 64.03 83.34 71.667 92.99 73.535c2.718.527 5.88.824 7.58.983 1.287.121 1.287.121 1.395.253l.09.11-.03.298-.133.09c-.113.078-.728.143-1.677.143M45.493 82.6zM56.3 119.207l-.45-.026c.201-3.277.238-6.542.109-9.707-.096-2.343-.23-3.286-.841-4.261-.654-1.041-1.376-1.391-2.571-1.97-.822-.401-1.846-.897-3.166-1.788-2.294-1.548-3.95-2.667-4.898-4.795-.723-1.627-.707-3.16-.676-6.216.029-2.804.222-4.041.335-4.53.267-1.16.983-3.428 1.355-3.657a.27.27 0 0 1 .205-.035.261.261 0 0 1 .139.092c.097.033.521-.145.66-.203.085-.034.155-.063.201-.077.745-.234 1.047-1.478 1.267-2.388.184-.763.296-1.225.659-1.231h.005c.645 0 .858 1.75.88 1.95.152 1.378-.17 2.294-.58 3.451-.196.56-.42 1.196-.63 1.988-.514 1.93-.919 3.456-.336 5 .369.976 1.076 1.821 2.104 2.516l-.253.374c-1.107-.748-1.872-1.666-2.274-2.731-.634-1.679-.191-3.345.321-5.275.215-.808.443-1.453.643-2.021.404-1.147.697-1.977.555-3.251-.086-.78-.287-1.318-.414-1.499-.078.165-.17.545-.241.834-.246 1.016-.581 2.404-1.572 2.713-.036.01-.093.036-.161.064-.31.13-.714.298-.995.203-.244.427-.79 1.946-1.098 3.284-.109.47-.295 1.671-.322 4.434-.032 2.99-.047 4.49.637 6.026.895 2.013 2.506 3.1 4.737 4.606 1.292.873 2.3 1.361 3.11 1.756 1.225.593 2.035.986 2.757 2.137.665 1.06.81 2.05.91 4.483.128 3.18.092 6.46-.11 9.75z"/><path d="M45.458 82.468c.347.366 1.256.178 1.826-.22.355-.246.608-.595.909-1.376.563-1.467 1.055-3.849.33-4.198-.144-.071-.291-.036-.438 0-.538.132-1.082.61-2.144 3.46-.69 1.855-.65 2.158-.483 2.334m-1.52 12.36a8.14 8.14 0 0 1-2.955-1.915l-.043-.042c-.464-.471-1.101-1.118-1.484-2.13a5.266 5.266 0 0 1-.325-2.005c.032-1.683-.125-6.352-.388-13.343l.452-.017c.263 7 .42 11.675.39 13.352a4.84 4.84 0 0 0 .294 1.854c.35.924.922 1.505 1.384 1.972l.042.043a7.733 7.733 0 0 0 2.792 1.809l-.16.422zm-.42-8.795a.857.857 0 0 1-.268-.042c-.663-.214-1.025-1.167-1.167-5.792-.024-.755-.033-1.375-.041-1.902-.026-1.665-.037-2.355-.412-3.378a8.383 8.383 0 0 0-1.588-2.644l.34-.296a8.832 8.832 0 0 1 1.674 2.785c.4 1.095.412 1.857.437 3.527.01.524.02 1.142.042 1.894.111 3.61.366 5.22.853 5.376.198.065.477-.03.805-.276l.271.361c-.345.256-.661.387-.946.387"/><path d="M40.51 73.204c.008-.182.014-.384.012-.61 0 0 .007-2.643-.698-3.335-.237-.233-.516-.388-.516-.388a2.404 2.404 0 0 0-.34-.155l-.31 4.342c-.194 2.207.039 2.784.31 2.869.365.115.956-.602 1.244-1.163.088-.17.23-.49.286-1.324l-.01-.023.01.023.005-.138.008-.098M39.228 89.33c-.46-.109-.836-.312-1.12-.606-.49-.507-.575-1.146-.604-1.357-.132-.983-1.098-6.379-2.437-13.848l-.436-2.438.445-.08.437 2.44c1.34 7.474 2.306 12.874 2.437 13.855.026.186.095.714.484 1.113.222.231.525.393.898.48l-.104.441z"/><path d="M38.953 73.518c-.228 0-.266-.241-.343-.741-.138-.88-.425-2.716-1.532-4.238a6.886 6.886 0 0 0-2.106-1.878l.229-.388c.912.535 1.666 1.207 2.243 2 .961 1.323 1.335 2.846 1.517 3.856l.312-.005c.023 1.143-.023 1.364-.28 1.392l-.04.002"/><path d="M33.688 63.83a10.173 10.173 0 0 0-.31 2.482c-.001 2.2.722 3.104 1.087 4.575.03.124.108.454.388.699.102.088.16.166.233.155.262-.05.306-1.134.306-1.134.092-.799.274-2.72-.072-3.986-.055-.197-.104-.31-.234-.774-.305-1.09-.303-1.41-.621-1.706-.303-.282-.728-.387-.777-.311-.044.068.174.34 1.32 1.24"/><path d="M34.661 70.917c-.025-.843-.006-1.165.294-1.204.239-.033.34.22.373.302l-.457.183c.037.021.09.038.153.03a.223.223 0 0 0 .177-.129c-.006.02-.039.158-.019.802l-.52.016z"/><path d="M36.3661807 81.0810947L32.5608795 74.4886737 32.9517831 74.2650947 36.7570843 80.8549895z"/><path d="M34.884 72.85a2.616 2.616 0 0 0-1-1.072c-.605-.356-1.2-.376-1.502-.356l-.03-.45c.355-.022 1.053 0 1.762.419.636.376.99.89 1.174 1.255l-.404.204z"/><path d="M31.28 69.181c-.528.162-.394 2.595.466 4.42.299.631.573.927 1.165 1.474.064.058.123.11.188.096.322-.067.383-1.718.045-3.043-.38-1.498-1.4-3.088-1.863-2.947m28.615 32.344l-.225-.013a8.621 8.621 0 0 0-.537-3.522 8.785 8.785 0 0 0-2.837-3.827l.138-.178a8.993 8.993 0 0 1 2.91 3.927 8.821 8.821 0 0 1 .551 3.613"/><path d="M68.2637892 111.891537L64.0701145 96.4595368 64.5065602 96.3408 68.7002349 111.7728z"/><path d="M40.718 48.938c.038-.07.831.186 1.854.811 1.715 1.044 1.72 1.69 2.668 2.2 1.53.824 2.4-.38 5.565-.233 2.275.106 4.088.834 4.057 1.158-.021.237-1.004.079-1.97.81-.644.489-.65.894-1.16 1.506-1.018 1.22-2.58 1.5-3.245 1.62-.317.057-2.023.339-3.827-.463-1.369-.609-1.364-1.206-2.667-1.62-1.437-.457-2.776-.228-2.782-.348-.007-.119 1.359.031 2.24-.835.618-.606.738-1.458.774-1.712.044-.304.129-.903-.143-1.517-.42-.946-1.407-1.3-1.364-1.377"/><path d="M40.906 54.229c.363.045.761.12 1.166.25.739.235 1.087.525 1.455.833.309.258.627.526 1.24.797 1.642.73 3.227.526 3.673.445.64-.115 2.136-.383 3.092-1.531.187-.224.303-.42.414-.609.183-.313.357-.609.79-.937.63-.479 1.274-.606 1.66-.683l.03-.007c-.5-.281-1.863-.729-3.634-.81-1.427-.068-2.376.148-3.138.321-.91.206-1.629.37-2.538-.12-.458-.248-.711-.52-1.003-.835-.353-.38-.753-.81-1.675-1.373a10.725 10.725 0 0 0-.39-.226c.101.138.195.293.272.466.301.683.209 1.342.163 1.659-.112.79-.397 1.417-.85 1.86a2.563 2.563 0 0 1-.727.5m6.462 2.934a6.95 6.95 0 0 1-2.814-.579c-.678-.302-1.041-.605-1.361-.873-.343-.286-.639-.534-1.279-.737-.91-.29-1.771-.292-2.285-.293-.398-.002-.661-.002-.678-.286-.018-.28.266-.312.514-.34.432-.049 1.236-.138 1.804-.696.368-.362.603-.888.698-1.563.042-.29.118-.829-.124-1.376-.27-.607-.804-.943-1.092-1.124-.155-.099-.392-.246-.261-.484l.054-.097.121-.037c.284-.076 1.263.372 2.043.849.985.599 1.429 1.078 1.787 1.463.272.292.487.524.869.73.737.397 1.279.274 2.174.07.795-.179 1.78-.404 3.28-.333 1.968.091 3.788.67 4.19 1.13a.41.41 0 0 1 .114.311c-.026.287-.317.345-.624.406-.364.072-.913.182-1.448.587-.35.266-.484.495-.655.786a4.733 4.733 0 0 1-.462.68c-1.079 1.293-2.706 1.585-3.4 1.71a6.846 6.846 0 0 1-1.165.096m7.484 22.144c.008.018.96-.249 1.697-.903.2-.178.248-.259 1.13-1.128.387-.381.508-.495.707-.631.378-.26.726-.497 1.214-.498.431-.003 1.03.18 1.297.618.055.092.063.358.27.56.014.014.038.038.073.062.247.182.562.125.622.114.274-.054.448-.221.678-.451.329-.328.285-.412.509-.621.062-.059.52-.473 1.13-.453.297.012.53.143.992.403.162.091.491.287.873.614.213.182.273.257.735.734.466.481.699.723.848.846.651.542 1.3.732 1.299.734 0 .002-.632-.16-1.316-.66-.162-.12-.278-.223-1.566-1.597-.295-.316-.506-.542-.873-.743-.23-.129-.565-.307-.989-.29-.462.019-.792.26-1.078.468-.69.504-.74.954-1.242 1.016-.105.013-.448.054-.602-.133a2.263 2.263 0 0 1-.228-.356c-.044-.09-.097-.253-.131-.245l-.003.001c-.046.018-.133-.134-.28-.228-.062-.04-.143-.076-.149-.067a.004.004 0 0 0 0 .005c.004.004.023-.008.025-.015.01-.03-.213-.113-.213-.113-.204-.073-.532-.173-.663-.188-.432-.053-1.076.496-1.762 1.085-1.106.946-1.32 1.195-1.93 1.552-.635.373-1.079.496-1.074.508"/><path d="M54.842 79.42a.046.046 0 0 1-.014-.003l-.056-.013-.042-.098.019-.044c.02-.047.05-.058.138-.091.153-.058.51-.194.983-.469.322-.19.528-.345.828-.6l.055-.056c.145-.15.378-.39.846-.85.393-.389.516-.504.722-.645.39-.264.756-.515 1.28-.518h.006c.475 0 1.072.198 1.365.64.051.035.084.112.121.197.014.033.027.065.04.09.05.097.141.248.214.336.076.092.242.124.496.094a.85.85 0 0 0 .409-.223c.047-.046.093-.1.145-.163.09-.103.193-.222.328-.35.009-.013.018-.026.025-.04.056-.082.107-.162.222-.269.09-.083.573-.496 1.21-.48.127.003.24.027.358.068.293.058.528.188.686.274.273.15.462.312.658.51.078.06.157.124.234.19.17.145.243.222.488.479l.254.263c.467.48.696.718.84.838.524.435 1.05.642 1.25.709l.048.016.033.052.048.118-.121.034a.167.167 0 0 1-.07-.007v.003a.406.406 0 0 1-.03-.01c-.225-.056-.775-.27-1.314-.666-.175-.127-.3-.24-1.582-1.61-.082-.086-.157-.166-.23-.24-.2-.154-.406-.29-.616-.408-.278-.157-.47-.266-.641-.328a1.339 1.339 0 0 0-.289-.02c-.427.017-.739.245-1.014.446a2.987 2.987 0 0 0-.274.225 2.187 2.187 0 0 1-.28.328 5.282 5.282 0 0 1-.212.205c-.142.144-.29.249-.527.278-.103.02-.437.063-.706-.133a.769.769 0 0 1-.086-.074c-.163-.16-.218-.354-.253-.483l-.02-.063c-.038-.02-.07-.054-.104-.09-.042-.043-.094-.097-.155-.135a.44.44 0 0 0-.073-.04l-.04.009-.117-.105.004-.006-.087-.036a4.327 4.327 0 0 0-.638-.182c-.385-.044-1.041.514-1.676 1.059-.289.246-.516.446-.706.612-.14.123-.26.228-.37.321a4.04 4.04 0 0 1-.228.223c-.694.613-1.626.93-1.782.93m.059.38c-.03.03.84.766.947.705.003-.001.047-.028.05-.025.001.002-.023.013-.025.025-.012.058.292.193.583.243.26.043.468.01.535 0 1.036-.17 1.433-.547 2.138-.487.502.043.534.234 1.313.341.25.033.396.035.583.146.26.153.34.366.607.412.064.01.14.003.293-.024.494-.094.568-.376.995-.559.491-.21 1-.098 1.118-.072.338.072.633.193.633.193.213.088.25.128.388.146.262.035.56-.048.56-.048.258.005.746-.02 1.287-.267.586-.269 1.06-.719 1.021-.777-.055-.082-.926.912-2.284 1.044-1.282.124-1.778-.637-2.698-.219-.53.241-.786.684-1.289.608-.287-.044-.404-.221-.655-.413-.71-.545-1.882-.75-2.746-.463-.303.103-.546.26-1.093.365-.232.046-.448.086-.681.074-.942-.056-1.55-.977-1.58-.948"/><path d="M61.771 81.304a.8.8 0 0 1-.131-.01c-.245-.036-.386-.161-.537-.291-.052-.045-.106-.093-.17-.143-.04-.03-.08-.057-.122-.086-.077-.023-.16-.033-.268-.047l-.115-.015a3.052 3.052 0 0 1-.821-.213c-.15-.06-.27-.108-.487-.126-.372-.032-.656.066-1.015.191-.296.101-.63.217-1.096.293a1.672 1.672 0 0 1-.571 0l-.014-.001c-.707-.063-1.221-.572-1.461-.834a3.89 3.89 0 0 1-.143-.134l-.06-.078.094-.124h.05c.059.002.086.032.166.12.028.03.06.069.101.11.208.18.537.43.65.474.074-.04.133-.03.171.029l.055.085c.09.043.243.097.406.127a.31.31 0 0 0 .034.003c.22.012.43-.028.653-.071.365-.07.594-.167.795-.25.095-.04.186-.078.284-.11.837-.282 1.935-.125 2.692.366.056.02.112.044.172.08.114.068.196.146.268.213.101.096.175.163.301.186a.77.77 0 0 0 .25-.024.96.96 0 0 0 .317-.114c.053-.035.106-.074.163-.115l.04-.03c.006-.004.012-.01.018-.013a1.657 1.657 0 0 1 .678-.36c.153-.045.298-.06.436-.054.153.001.322.014.51.056a4.138 4.138 0 0 1 .762.249c.223.044.47.066.76.044h.002l.016-.005h.031c.96-.093 1.668-.63 2.009-.89.165-.126.22-.166.294-.156l.048.007.035.045a.132.132 0 0 1 .016.112c-.047.168-.567.592-1.083.831-.409.186-.87.284-1.31.278l-.02.001c-.08.02-.34.077-.58.046-.11-.015-.168-.043-.257-.084l-.03-.013c-.196-.04-.375-.096-.542-.148-.233-.072-.44-.137-.654-.147-.15 0-.277.02-.386.046-.06.017-.12.04-.183.07-.165.074-.301.17-.433.266a1.843 1.843 0 0 1-.22.156c-.172.115-.349.202-.568.202"/><path d="M68.098 80.747c-.23.56-1.016 2.292-2.966 3.42-.56.326-2.043 1.078-3.791.922-3.848-.34-6.218-4.831-6.222-4.829-.002.003 2.093 4.58 6.222 4.855 1.743.115 3.132-.584 3.815-.996"/><path d="M61.72 85.24a5.66 5.66 0 0 1-.387-.013c-4.2-.278-6.306-4.884-6.321-4.93l-.06-.181.24.044.035.06c.252.456 2.568 4.443 6.124 4.758.582.05 1.135.001 1.637-.102a7.006 7.006 0 0 0 2.11-.853l.015.025c1.736-1.02 2.548-2.53 2.88-3.345l.21.086c-.344.845-1.195 2.424-3.014 3.477a7.4 7.4 0 0 1-2.139.827 6.196 6.196 0 0 1-1.33.146m-3.04-15.35c.126.025.58.131.92.557.297.369.333.764.34.903"/><path d="M59.827 71.355a1.467 1.467 0 0 0-.315-.838 1.467 1.467 0 0 0-.854-.517l.044-.222c.182.037.643.167.987.599.293.366.354.763.364.966l-.226.012zm4.013.446a1.41 1.41 0 0 1 1.413-.96"/><path d="M63.947 71.837l-.214-.072c.062-.188.225-.54.61-.793.363-.235.73-.254.917-.243l-.014.225a1.31 1.31 0 0 0-.78.208 1.3 1.3 0 0 0-.52.675M66.697.756c-.004-.057-3.527-.317-7.749.774-1.91.493-10.04 2.726-15.107 10.444-.93 1.413-3.878 6.021-4.069 12.184-.114 3.67.772 7.2-.193 7.544-.247.087-.673-.013-2.518-2.128-1.399-1.605-3.474-3.982-4.068-5.416-2.117-5.107 6.81-16.92 18.982-21.274C59.419.22 66.702.838 66.695.756"/><path d="M57.968 1.567c-2.08.352-4.056.864-5.917 1.528-8.805 3.152-15.828 10.244-18.215 15.623-.966 2.175-1.186 4.027-.635 5.355.58 1.398 2.655 3.778 4.029 5.353 1.58 1.81 2.106 2.12 2.272 2.063.431-.153.31-1.759.195-3.31-.093-1.22-.195-2.602-.152-4.028.091-2.898.875-7.383 4.105-12.3 4.191-6.382 10.438-9.136 14.318-10.284m-18.52 30.386c-.36 0-.94-.375-2.558-2.23-1.393-1.598-3.498-4.01-4.107-5.479-.598-1.443-.377-3.418.64-5.71 2.425-5.466 9.551-12.67 18.475-15.863C55.29 1.458 59.058.755 63.131.573c2.097-.2 3.566-.094 3.694-.003l.086.06.017.207-.068.074c-.078.084-.09.084-.61.075a47.589 47.589 0 0 0-3.012.034c-1.218.11-2.678.326-4.234.729-3.679.95-10.518 3.56-14.976 10.349-3.171 4.829-3.943 9.228-4.03 12.068-.044 1.4.058 2.77.15 3.979.157 2.107.26 3.5-.494 3.77a.629.629 0 0 1-.205.038m24.154 64.34c-6.923 0-11.916-6.23-15.572-10.792l.353-.283c3.598 4.49 8.514 10.624 15.22 10.624h.191c6.604-.116 11.265-5.584 15.38-10.41.292-.343.581-.683.867-1.015l.377-.44c1.307-1.51 2.657-3.075 3.612-4.856 1.078-2.011 1.652-4.356 1.657-6.782l.453.001c-.006 2.501-.598 4.919-1.712 6.994-.979 1.827-2.345 3.408-3.667 4.938l-.377.438-.867 1.014c-4.176 4.899-8.908 10.45-15.715 10.568l-.2.001M45.916 82.796c-1.537-2.042-2.833-3.996-3.96-5.974l.394-.222c1.115 1.96 2.4 3.898 3.928 5.924l-.362.272zm-5.735-9.419c-1.222-2.616-2.364-5.474-3.489-8.736-1.723-4.992-2.04-10.616-.916-16.264.125-.628.267-1.262.404-1.876.441-1.983.898-4.034.851-6.098-.057-2.45-.636-5.062-1.722-7.765l.42-.168c1.106 2.754 1.696 5.42 1.754 7.921.048 2.12-.414 4.198-.862 6.208a83.765 83.765 0 0 0-.4 1.865c-1.109 5.57-.798 11.113.899 16.03 1.12 3.247 2.255 6.09 3.471 8.693l-.41.19zm4.306 11.53c-.405.397-.587.622-.548.674.03.039.186-.02.467-.174m-5.62-44.176c.04.144.989-.205 2.61-.217 1.04-.009 1.252.13 3.648.326 1.159.094 1.034.055 1.523.108 2.619.28 4.389 1.19 4.408 1.141.022-.06-2.701-1.252-4.789-1.738-.157-.037-.337-.076-1.198-.272-1.687-.385-1.758-.41-2.012-.434-.973-.095-1.739.092-2.232.217-.982.249-2.001.718-1.958.87"/><path d="M41.48 40.9c.523 0 .85.04 1.376.104.467.056 1.106.134 2.197.224.619.05.866.063 1.045.07.155.01.25.013.481.038.69.074 1.322.191 1.879.324a21.643 21.643 0 0 0-2.298-.7l-.249-.057c-.17-.037-.44-.098-.947-.213l-.844-.194c-.87-.2-.96-.22-1.155-.24-.972-.093-1.736.099-2.193.215-.768.195-1.457.494-1.744.67.085-.012.188-.03.292-.046a12.832 12.832 0 0 1 2.077-.194h.084zm9.493 1.806c-.043 0-.107-.026-.284-.096a15.43 15.43 0 0 0-4.134-1.05c-.224-.024-.318-.028-.468-.035-.17-.01-.43-.022-1.053-.072-1.095-.09-1.737-.168-2.206-.225-.562-.069-.869-.105-1.43-.101a12.54 12.54 0 0 0-2.042.192c-.461.074-.634.102-.679-.057a.151.151 0 0 1 .02-.127c.141-.245 1.201-.675 2.02-.882.47-.12 1.258-.32 2.27-.22.21.02.302.04 1.183.242l.844.194c.507.116.778.176.946.214l.252.058c1.93.45 4.773 1.624 4.862 1.793l.025.045-.035.095-.045.02a.127.127 0 0 1-.046.012zM36.45 35.362c-1.446-4.172-1.882-6.408-1.31-6.704.15-.079.368-.023.655.163"/><path d="M36.238 35.437c-1.968-5.678-1.711-6.714-1.202-6.98.23-.12.52-.061.883.175l-.246.379c-.236-.154-.378-.18-.428-.153-.114.06-.584.65 1.42 6.43l-.427.149zm80.155 20.545l-.397 3.219h1.116c.306 0 .573-.047.807-.14.232-.093.427-.223.585-.39.157-.164.277-.364.36-.593.083-.232.124-.483.124-.755a1.6 1.6 0 0 0-.091-.558 1.096 1.096 0 0 0-.275-.42 1.224 1.224 0 0 0-.463-.27 2.05 2.05 0 0 0-.649-.093h-1.117zm-.495 4.012l-.355 2.886h-.998l.94-7.687h2.121c.409 0 .763.049 1.065.146.3.096.548.234.744.412.195.18.34.394.437.644.098.25.146.53.146.836 0 .406-.067.777-.2 1.114-.131.338-.323.63-.578.872a2.661 2.661 0 0 1-.933.57 3.647 3.647 0 0 1-1.272.207h-1.117zm6.34 2.216c.262 0 .5-.072.713-.215.215-.142.399-.333.55-.57.15-.24.266-.513.348-.824.083-.312.124-.637.124-.977 0-.5-.098-.877-.296-1.131-.197-.254-.48-.382-.854-.382-.265 0-.504.072-.717.212a1.87 1.87 0 0 0-.545.57 2.92 2.92 0 0 0-.35.822c-.081.311-.122.637-.122.977 0 .5.096.879.292 1.134.195.255.481.384.857.384m-.086.745c-.298 0-.57-.05-.818-.152a1.814 1.814 0 0 1-.638-.443 2.05 2.05 0 0 1-.42-.708c-.1-.278-.15-.598-.15-.955 0-.457.072-.888.215-1.292a3.53 3.53 0 0 1 .589-1.063c.249-.304.542-.543.881-.718a2.347 2.347 0 0 1 1.098-.263c.298 0 .57.05.818.153.246.1.459.249.639.442.178.193.318.43.418.711.101.28.15.597.15.952 0 .454-.071.883-.214 1.288a3.53 3.53 0 0 1-.588 1.062c-.25.304-.544.544-.884.721a2.332 2.332 0 0 1-1.096.265m5.19-.766a.988.988 0 0 0 .518-.159c.174-.105.343-.251.506-.44.162-.188.315-.411.457-.67.14-.26.263-.543.366-.85l.179-1.438a1.15 1.15 0 0 0-.49-.403 1.502 1.502 0 0 0-.574-.117 1.26 1.26 0 0 0-.767.251 2.207 2.207 0 0 0-.58.653 3.45 3.45 0 0 0-.367.892c-.086.33-.13.653-.13.971 0 .427.077.752.231.974.154.224.37.336.65.336zm1.95.691c-.127 0-.21-.033-.256-.096a.41.41 0 0 1-.067-.236l.103-1.132a4.402 4.402 0 0 1-.445.633c-.162.19-.332.351-.509.485a2.222 2.222 0 0 1-.553.312 1.627 1.627 0 0 1-.583.109c-.466 0-.826-.168-1.083-.507-.257-.337-.383-.827-.383-1.471a4.492 4.492 0 0 1 .352-1.723c.112-.268.247-.517.407-.748.16-.231.338-.43.532-.598.195-.168.406-.3.637-.398.229-.096.469-.144.72-.144.264 0 .508.052.728.156.219.103.408.251.56.444l.373-2.987h.94l-.978 7.901h-.495zm3.922-7.9l-.57 4.65h.167c.07 0 .13-.01.177-.03a.49.49 0 0 0 .155-.12l1.8-1.84c.058-.058.113-.104.168-.14a.373.373 0 0 1 .208-.054h.844l-2.101 2.13c-.053.058-.106.11-.158.159a.918.918 0 0 1-.17.125.63.63 0 0 1 .146.15c.04.057.078.12.117.188l1.634 2.682h-.821a.379.379 0 0 1-.192-.042.387.387 0 0 1-.131-.146l-1.387-2.226a.45.45 0 0 0-.136-.145.485.485 0 0 0-.218-.037h-.183l-.317 2.596h-.946l.973-7.9h.941zm3.201 7.9l.657-5.44h.477c.1 0 .18.025.236.072.057.045.086.117.086.213a20.198 20.198 0 0 0-.008.145l-.004.075a.562.562 0 0 0-.004.039l-.075.987c.233-.502.494-.888.78-1.16.29-.272.593-.407.912-.407.15 0 .3.032.451.096l-.17.917a1.327 1.327 0 0 0-.49-.1c-.347 0-.658.167-.929.506-.273.337-.5.85-.683 1.536l-.3 2.521h-.936zm6.265-4.822c-.226 0-.434.047-.624.139-.19.093-.358.221-.504.384a2.345 2.345 0 0 0-.376.573 3.41 3.41 0 0 0-.242.712c.552-.069.993-.146 1.327-.233.333-.088.589-.183.767-.285.18-.103.299-.211.357-.33a.839.839 0 0 0 .084-.37.547.547 0 0 0-.18-.392.755.755 0 0 0-.243-.142 1.075 1.075 0 0 0-.366-.056m1.645.552c0 .236-.05.453-.146.653-.097.197-.274.376-.531.536-.258.159-.614.298-1.064.416-.453.118-1.032.211-1.74.285a1.163 1.163 0 0 0-.007.113v.117c0 .48.105.845.315 1.096.209.254.525.379.947.379.172 0 .326-.018.46-.054a1.89 1.89 0 0 0 .359-.13c.106-.054.2-.11.28-.174.082-.061.155-.12.223-.171.069-.052.13-.095.188-.13a.32.32 0 0 1 .172-.055c.064 0 .124.03.178.091l.235.295c-.182.19-.36.352-.535.486-.172.135-.35.246-.532.336a2.477 2.477 0 0 1-.573.196c-.199.04-.414.06-.642.06-.312 0-.59-.052-.839-.155a1.718 1.718 0 0 1-.628-.443 1.966 1.966 0 0 1-.398-.694 2.823 2.823 0 0 1-.139-.912c0-.28.03-.557.089-.834.058-.278.144-.542.257-.792.114-.25.25-.482.413-.697.164-.215.35-.399.56-.554.21-.157.44-.28.692-.368.254-.09.525-.134.814-.134.276 0 .514.038.715.118.201.078.366.178.495.3.129.121.225.255.287.402.062.146.095.287.095.418m4.533-3.503l-1.332 1.38a.453.453 0 0 1-.154.112.483.483 0 0 1-.185.032h-.548l.892-1.299a.507.507 0 0 1 .167-.172.515.515 0 0 1 .257-.053h.903zm-.43 3.209a.329.329 0 0 1-.085.093.188.188 0 0 1-.107.03.302.302 0 0 1-.165-.059 4.225 4.225 0 0 0-.215-.131 1.417 1.417 0 0 0-.75-.196c-.16 0-.307.022-.439.067a1.087 1.087 0 0 0-.345.184.844.844 0 0 0-.223.277.748.748 0 0 0-.077.336c0 .167.056.302.167.402.11.1.25.187.419.26.168.073.349.144.544.212.196.067.377.154.546.258.168.103.308.236.419.397.111.16.167.37.167.627a1.801 1.801 0 0 1-.573 1.323 2.13 2.13 0 0 1-.667.415c-.26.104-.55.156-.873.156-.346 0-.654-.062-.92-.186a1.883 1.883 0 0 1-.652-.475l.235-.365a.36.36 0 0 1 .101-.107.294.294 0 0 1 .152-.037.26.26 0 0 1 .17.075c.06.051.131.106.216.169.087.063.195.119.325.17.132.048.296.075.499.075.173 0 .332-.028.474-.08.142-.055.262-.126.36-.216a.922.922 0 0 0 .304-.698.578.578 0 0 0-.167-.433 1.373 1.373 0 0 0-.419-.27c-.17-.07-.349-.137-.544-.2a2.716 2.716 0 0 1-.541-.242 1.335 1.335 0 0 1-.419-.382c-.111-.158-.167-.368-.167-.63a1.693 1.693 0 0 1 .533-1.228c.17-.165.38-.295.625-.393.245-.099.522-.148.83-.148.326 0 .612.054.862.163.25.11.463.258.643.443l-.243.344z"/><path d="M149.196777 62.88L150.158223 54.9789474 151.099428 54.9789474 150.136717 62.88z"/><path d="M157.234 58.316a.35.35 0 0 1-.086.093.183.183 0 0 1-.107.03.302.302 0 0 1-.165-.059 4.225 4.225 0 0 0-.215-.131 1.403 1.403 0 0 0-.749-.196c-.162 0-.308.022-.441.067a1.087 1.087 0 0 0-.343.184.82.82 0 0 0-.224.277.748.748 0 0 0-.077.336c0 .167.056.302.167.402.11.1.25.187.419.26.167.073.349.144.544.21.196.07.378.156.546.26.168.103.308.236.419.397.111.16.167.37.167.627a1.801 1.801 0 0 1-.572 1.322 2.102 2.102 0 0 1-.668.416c-.26.104-.549.156-.872.156a2.17 2.17 0 0 1-.922-.186 1.87 1.87 0 0 1-.651-.475l.235-.365a.363.363 0 0 1 .103-.107.289.289 0 0 1 .15-.037c.057 0 .114.024.172.075.057.05.13.106.215.169.085.063.194.119.325.17.13.048.296.075.496.075.176 0 .334-.028.476-.08.142-.055.262-.127.36-.216a.906.906 0 0 0 .226-.314.956.956 0 0 0 .078-.384.573.573 0 0 0-.167-.433 1.373 1.373 0 0 0-.419-.27 7.023 7.023 0 0 0-.542-.2 2.664 2.664 0 0 1-.543-.242 1.31 1.31 0 0 1-.419-.384c-.111-.156-.166-.366-.166-.627 0-.229.045-.45.136-.662.09-.212.224-.402.396-.566.17-.166.38-.296.625-.394.245-.099.522-.148.83-.148.326 0 .613.054.862.163.25.11.463.258.642.443l-.24.344zm.73-.87h.714c.072 0 .13.02.176.054a.21.21 0 0 1 .078.144l.499 3.498c.019.125.029.246.03.363l.008.345.131-.345.142-.363 1.489-3.519a.31.31 0 0 1 .105-.134.268.268 0 0 1 .163-.053h.397a.24.24 0 0 1 .167.053.21.21 0 0 1 .07.134l.607 3.52c.022.124.04.247.05.364.013.119.026.236.037.354.035-.114.07-.23.104-.351.034-.12.076-.243.125-.368l1.377-3.498a.304.304 0 0 1 .28-.198h.686l-2.283 5.434h-.725c-.081 0-.134-.06-.156-.182l-.66-3.686a3.586 3.586 0 0 1-.05-.348c-.016.06-.035.12-.052.177-.018.058-.04.116-.065.178l-1.574 3.68c-.05.12-.121.181-.215.181h-.698l-.956-5.434zm9.596 4.764c.26 0 .5-.072.713-.215.215-.142.399-.333.55-.57.15-.24.266-.513.347-.824.084-.312.126-.637.126-.977 0-.5-.1-.877-.296-1.131-.198-.254-.482-.382-.854-.382-.266 0-.505.072-.718.212a1.87 1.87 0 0 0-.545.57 2.96 2.96 0 0 0-.35.822 3.86 3.86 0 0 0-.123.977c0 .5.097.879.292 1.134.196.255.48.384.858.384m-.086.745c-.297 0-.57-.05-.817-.152a1.803 1.803 0 0 1-.64-.443 2.052 2.052 0 0 1-.42-.708c-.1-.278-.149-.598-.149-.955 0-.457.073-.888.216-1.292.141-.405.339-.758.588-1.063.248-.304.543-.543.88-.718a2.351 2.351 0 0 1 1.098-.263c.299 0 .57.05.818.153.248.1.46.249.64.442.178.193.319.43.418.711.1.28.151.597.151.952 0 .454-.072.883-.215 1.288a3.53 3.53 0 0 1-.588 1.062c-.25.304-.544.544-.885.721-.34.178-.706.265-1.095.265m5.517-7.214a.62.62 0 0 1-.056.26.726.726 0 0 1-.365.361.581.581 0 0 1-.49 0 .723.723 0 0 1-.345-.361.656.656 0 0 1 0-.523.709.709 0 0 1 .144-.217.776.776 0 0 1 .206-.152.584.584 0 0 1 .493-.001.747.747 0 0 1 .212.146.68.68 0 0 1 .2.487zm-.34 1.705l-.718 5.836c-.029.218-.083.422-.164.61-.08.187-.189.351-.325.49-.136.14-.298.25-.486.331-.189.08-.402.121-.642.121-.126 0-.234-.01-.322-.028a1.292 1.292 0 0 1-.263-.08l.096-.515c.018-.048.04-.075.064-.09a.265.265 0 0 1 .113-.017h.188c.253 0 .445-.066.566-.196.124-.13.204-.34.24-.63l.714-5.832h.94zm3.542.612c-.226 0-.434.047-.624.139a1.68 1.68 0 0 0-.504.384 2.345 2.345 0 0 0-.376.573 3.41 3.41 0 0 0-.242.712c.552-.069.993-.146 1.327-.233.334-.088.59-.183.768-.285.18-.103.297-.211.356-.33a.839.839 0 0 0 .084-.37.544.544 0 0 0-.041-.2.577.577 0 0 0-.138-.192.755.755 0 0 0-.244-.142 1.07 1.07 0 0 0-.366-.056m1.645.552c0 .236-.048.453-.146.653-.097.197-.273.376-.531.536-.258.159-.614.298-1.064.416-.452.118-1.032.211-1.74.285a1.162 1.162 0 0 0-.007.113v.117c0 .48.105.845.315 1.096.209.254.525.379.947.379.172 0 .327-.018.46-.054.135-.036.254-.079.36-.13.105-.054.2-.11.28-.174.08-.061.154-.12.222-.171.069-.052.13-.095.188-.13a.32.32 0 0 1 .172-.055c.065 0 .125.03.178.091l.235.295c-.18.19-.36.352-.534.486a3.077 3.077 0 0 1-.533.336 2.477 2.477 0 0 1-.573.196c-.2.04-.413.06-.642.06-.312 0-.59-.052-.839-.155a1.718 1.718 0 0 1-.628-.443 1.986 1.986 0 0 1-.398-.694 2.823 2.823 0 0 1-.139-.912 3.956 3.956 0 0 1 .347-1.626c.113-.25.25-.482.412-.697.164-.215.35-.399.56-.554.21-.157.44-.28.693-.368.253-.09.523-.134.814-.134.276 0 .514.038.714.118.201.078.366.178.495.3.129.121.225.255.288.402.06.146.094.287.094.418m5.78-.477c-.172 0-.346.053-.524.16a2.116 2.116 0 0 0-.512.452 3.803 3.803 0 0 0-.46.687 5.515 5.515 0 0 0-.369.863l-.17 1.384c.135.197.298.335.49.417.192.08.386.119.583.119.186 0 .36-.038.527-.117a1.7 1.7 0 0 0 .451-.32c.136-.134.258-.291.366-.472.107-.18.197-.374.27-.58a3.939 3.939 0 0 0 .228-1.29c0-.425-.076-.75-.23-.97a.745.745 0 0 0-.65-.333zm-3.337 6.588l.886-7.28h.479c.215 0 .322.107.322.322l-.09 1.159c.134-.237.284-.45.446-.64.16-.193.329-.357.507-.492a2.16 2.16 0 0 1 .555-.314c.195-.073.391-.11.591-.11.462 0 .824.169 1.08.505.259.336.386.827.386 1.474a4.47 4.47 0 0 1-.35 1.72 4.24 4.24 0 0 1-.409.745 3.23 3.23 0 0 1-.531.602c-.195.169-.407.303-.638.399-.229.096-.469.144-.72.144-.268 0-.514-.052-.734-.158a1.511 1.511 0 0 1-.56-.452l-.29 2.376h-.93zm7.882-8.98c0 .093-.02.18-.057.26a.722.722 0 0 1-.362.361.585.585 0 0 1-.49 0 .703.703 0 0 1-.35-.361.655.655 0 0 1 0-.523.75.75 0 0 1 .354-.369.582.582 0 0 1 .49-.001.696.696 0 0 1 .414.633zm-.36 1.705l-.656 5.434h-.94l.655-5.434h.94zm3.6.612c-.226 0-.434.047-.623.139a1.669 1.669 0 0 0-.506.384c-.147.163-.271.354-.375.573a3.34 3.34 0 0 0-.243.712c.552-.069.993-.146 1.327-.233.334-.088.59-.183.768-.285.18-.103.298-.211.356-.33a.84.84 0 0 0 .086-.37.547.547 0 0 0-.181-.392.755.755 0 0 0-.244-.142 1.07 1.07 0 0 0-.366-.056m.054 5.971c.047 0 .076.021.085.063l.098.345c-.107.08-.24.149-.4.2-.16.053-.326.08-.497.08-.272 0-.481-.064-.63-.19a.628.628 0 0 1-.22-.5c0-.208.065-.405.197-.587.13-.183.297-.347.502-.49-.305 0-.578-.053-.818-.16a1.833 1.833 0 0 1-.619-.445c-.17-.19-.3-.42-.39-.69a2.86 2.86 0 0 1-.134-.904 3.956 3.956 0 0 1 .347-1.626c.113-.25.25-.482.414-.697.163-.215.349-.399.559-.554.21-.157.44-.28.692-.368.253-.09.524-.134.814-.134.276 0 .514.038.714.118.201.078.366.178.495.3.13.121.225.255.288.402.062.146.094.287.094.418 0 .236-.048.453-.145.653-.098.197-.274.376-.532.536-.258.159-.614.298-1.064.416-.452.118-1.032.211-1.74.285a1.156 1.156 0 0 0-.006.113v.117c0 .48.105.845.314 1.096.21.254.525.379.947.379.174 0 .327-.018.46-.054.135-.036.254-.079.36-.13.105-.054.2-.11.28-.174.08-.061.154-.12.222-.171.07-.052.13-.095.189-.13a.313.313 0 0 1 .172-.055c.064 0 .124.03.177.091l.237.295a4.465 4.465 0 0 1-.806.68c-.262.165-.543.278-.843.34a1.837 1.837 0 0 0-.229.152c-.078.06-.148.126-.212.198a1.003 1.003 0 0 0-.158.245.66.66 0 0 0-.062.284.37.37 0 0 0 .107.277c.072.07.165.105.28.105a.808.808 0 0 0 .322-.062.566.566 0 0 0 .083-.046.092.092 0 0 1 .056-.021m4.143-9.05l-.57 4.651h.166c.071 0 .13-.01.177-.03a.477.477 0 0 0 .156-.12l1.8-1.84c.057-.058.113-.104.167-.14a.373.373 0 0 1 .209-.054h.844l-2.1 2.13c-.055.058-.107.11-.16.159a.953.953 0 0 1-.168.125.65.65 0 0 1 .144.15c.04.057.08.12.12.188l1.632 2.682h-.822a.379.379 0 0 1-.191-.042.398.398 0 0 1-.132-.146l-1.386-2.226a.448.448 0 0 0-.135-.145.491.491 0 0 0-.22-.037h-.181l-.318 2.596h-.945l.973-7.9h.94zm3.2 7.901l.652-5.44h.478c.214 0 .322.108.322.323l-.081 1.052c.29-.48.617-.841.98-1.085.365-.242.74-.364 1.131-.364.405 0 .719.135.943.408.225.272.336.669.336 1.19a3.308 3.308 0 0 1-.027.456l-.408 3.46h-.956l.408-3.46.02-.206c.004-.067.007-.13.007-.19 0-.293-.055-.51-.163-.652-.11-.142-.281-.212-.514-.212-.172 0-.347.046-.524.14-.177.093-.349.223-.513.394a3.22 3.22 0 0 0-.46.616c-.14.242-.261.512-.361.807l-.313 2.763h-.956zm7.679-.67c.26 0 .5-.072.713-.215.215-.142.399-.333.55-.57.149-.24.266-.513.347-.824.084-.312.124-.637.124-.977 0-.5-.098-.877-.295-1.131-.198-.254-.482-.382-.853-.382-.266 0-.505.072-.718.212a1.87 1.87 0 0 0-.545.57 2.96 2.96 0 0 0-.35.822c-.083.311-.123.637-.123.977 0 .5.097.879.292 1.134.196.255.48.384.858.384m-.086.745c-.299 0-.57-.05-.817-.152a1.791 1.791 0 0 1-.64-.443 2.052 2.052 0 0 1-.42-.708c-.1-.278-.15-.598-.15-.955 0-.457.074-.888.215-1.292.143-.405.34-.758.59-1.063.248-.304.542-.543.88-.718a2.351 2.351 0 0 1 1.098-.263c.299 0 .57.05.818.153.246.1.46.249.64.442.178.193.318.43.418.711.1.28.15.597.15.952 0 .454-.071.883-.214 1.288a3.53 3.53 0 0 1-.588 1.062c-.25.304-.546.544-.885.721-.34.178-.706.265-1.095.265M81.148 27.56c.035 0 .07-.017.107-.053 0 .072-.008.106-.027.106-.018 0-.045-.016-.08-.053m-7.683 15.022c0 1.108.215 2.073.645 2.896 1.539-.68 3.402-2.093 5.588-4.238-1.04-1.716-1.692-3.067-1.962-4.05-.268-.983-.457-2.28-.564-3.89-2.47 3.54-3.707 6.634-3.707 9.282m7.307.213c-3.152 2.432-5.462 3.648-6.931 3.648-.788 0-1.37-.384-1.746-1.153a5.607 5.607 0 0 1-.564-2.495c0-1.716.725-4.29 2.176-7.724 1.45-3.433 2.837-5.15 4.163-5.15.68 0 1.263 1.342 1.747 4.023.483 2.682.976 4.632 1.478 5.847 2.434-2.574 5.962-6.866 10.583-12.874 5.802-7.618 9.653-11.784 11.552-12.5a5.446 5.446 0 0 1 1.987-.375c.68 0 1.244.144 1.691.43.448.286.673.642.673 1.072 0 .609-.52.965-1.558 1.072-1.255.681-3.188 2.326-5.803 4.937-2.615 2.539-4.71 4.917-6.286 7.134-3.832 5.33-7.773 9.675-11.82 13.036 2.007 2.968 5.158 4.452 9.457 4.452.464 0 1.164-.036 2.095-.107 9.957-.93 17.012-5.24 21.168-12.928 1.682-3.076 2.525-6.115 2.525-9.12 0-3.004-1.093-5.703-3.278-8.1-1.754-1.966-3.662-3.183-5.722-3.649a28.656 28.656 0 0 0-6.312-.697c-5.516 0-10.603 1.27-15.258 3.81-4.907 2.681-7.36 5.685-7.36 9.012 0 .894.241 1.627.725 2.2.483.571.814.894.994.964h-.323c-.932-.178-1.756-.643-2.47-1.394-.79-.93-1.183-1.913-1.183-2.95 0-3.577 2.248-6.653 6.743-9.227 4.494-2.576 9.768-3.863 15.822-3.863 2.793 0 5.658.322 8.596.965 2.936.644 5.605 2.182 8.004 4.615 2.759 2.86 4.138 6.097 4.138 9.708 0 2.683-.788 5.455-2.365 8.316-2.722 4.935-6.787 8.547-12.195 10.836-4.334 1.824-9.008 2.735-14.022 2.735-5.016 0-8.722-1.502-11.12-4.506m41.258-1.502c0 1.289.448 1.932 1.344 1.932 2.077 0 4.906-2.271 8.488-6.814l5.694-7.831c-.285-.5-.75-.752-1.395-.752-2.186 0-5.087 1.69-8.704 5.07-3.618 3.38-5.427 6.179-5.427 8.395m16.064-13.196l.753-.162c.393 0 .769.162 1.128.484.358.321.537.572.537.75 0 .18-1.111 1.905-3.33 5.177-2.221 3.273-3.33 5.553-3.33 6.84 0 .107.016.215.052.322.179.822.573 1.233 1.182 1.233 1.862 0 5.265-3.075 10.209-9.226.107-.143.231-.215.376-.215.143 0 .213.134.213.403 0 .268-.16.616-.482 1.046-4.585 6.115-8.078 9.173-10.478 9.173-.321 0-.626-.053-.912-.16-1.577-.608-2.363-1.789-2.363-3.542 0-.608.07-1.215.213-1.823l-3.33 3.218c-2.113 1.86-3.645 2.79-4.594 2.79-.949 0-1.853-.304-2.713-.912-.966-.715-1.45-1.663-1.45-2.844 0-2.61 1.827-5.73 5.48-9.36 3.654-3.629 7-5.445 10.046-5.445 1.183 0 1.97.411 2.363 1.234l.27.724c.072.197.125.295.16.295"/><path d="M168.02 43.493c-2.436 0-3.653-1.127-3.653-3.38 0-1.287.572-3.048 1.72-5.283 1.146-2.236 2.345-4.123 3.599-5.66-2.22 1.072-4.782 3.013-7.683 5.82-2.9 2.809-4.924 5.75-6.071 8.825-.18.287-.483.43-.912.43-.86 0-1.29-.484-1.29-1.45.357-1.966 1.163-4.22 2.417-6.758.395-.823 1.558-3.219 3.493-7.19-2.795 1.825-5.168 3.783-7.12 5.876a100.249 100.249 0 0 0-5.426 6.302c-1.665 2.11-2.606 3.165-2.82 3.165-.467 0-.869-.215-1.21-.644-.34-.428-.509-.858-.509-1.287 0-.643.93-3.004 2.793-7.081l-3.223 3.38c-.788.787-1.28 1.18-1.478 1.18-.196 0-.296-.115-.296-.35 0-.231.145-.49.43-.777a43.927 43.927 0 0 0 3.546-3.969c1.039-1.324 2.758-3.683 5.158-7.081.394-.537.949-.805 1.666-.805.715 0 1.074.34 1.074 1.02 0 .25-.949 1.993-2.847 5.229-1.898 3.237-2.954 5.267-3.17 6.09 1.468-1.61 3.67-3.773 6.608-6.492 4.406-4.077 7.307-6.115 8.704-6.115.43 0 .823.125 1.181.375.358.25.538.528.538.832 0 .304-.698 1.654-2.096 4.05-1.362 2.468-2.113 3.934-2.256 4.399 3.976-3.326 5.964-5.007 5.964-5.043 3.366-2.61 5.783-3.917 7.253-3.917.43 0 .833.135 1.208.403.376.27.565.583.565.939 0 .072-1.164 1.583-3.493 4.533-2.33 2.951-3.636 5.374-3.92 7.268-.074.645.053 1.127.374 1.45.323.321.904.482 1.746.482.841 0 2.077-.581 3.708-1.743 1.629-1.162 3.286-2.727 4.97-4.694.643-.715 1.082-1.073 1.316-1.073.231 0 .349.09.349.268 0 .25-.162.536-.485.86-1.753 2.109-3.644 3.906-5.667 5.39-2.024 1.484-3.61 2.226-4.754 2.226"/><path d="M178.067 41.293c0 1.289.448 1.932 1.344 1.932 2.076 0 4.905-2.271 8.487-6.814l5.695-7.831c-.287-.5-.751-.752-1.396-.752-2.186 0-5.087 1.69-8.704 5.07-3.617 3.38-5.426 6.179-5.426 8.395m16.064-13.196l.751-.162c.395 0 .77.162 1.13.484.357.321.536.572.536.75 0 .18-1.11 1.905-3.33 5.177-2.222 3.273-3.331 5.553-3.331 6.84a.99.99 0 0 0 .054.322c.177.822.572 1.233 1.18 1.233 1.864 0 5.265-3.075 10.21-9.226.107-.143.23-.215.375-.215.143 0 .214.134.214.403 0 .268-.16.616-.482 1.046-4.585 6.115-8.078 9.173-10.477 9.173a2.57 2.57 0 0 1-.913-.16c-1.577-.608-2.364-1.789-2.364-3.542 0-.608.07-1.215.214-1.823l-3.33 3.218c-2.114 1.86-3.646 2.79-4.593 2.79-.95 0-1.855-.304-2.714-.912-.966-.715-1.45-1.663-1.45-2.844 0-2.61 1.826-5.73 5.48-9.36 3.653-3.629 7.002-5.445 10.045-5.445 1.183 0 1.97.411 2.365 1.234.107.287.197.528.268.724.072.197.125.295.162.295"/></g></svg>